<svg xmlns="http://www.w3.org/2000/svg" viewBox="0 0 767 799" version="1.1"><path d="" stroke="none" fill="#0073e6" fill-rule="evenodd"/><path d="M 602.291 1.300 C 601.626 1.960, 598.952 7.874, 596.349 14.442 C 583.525 46.799, 566.979 72.140, 543.059 96.059 C 518.688 120.431, 492.783 137.250, 460.060 149.947 C 454.318 152.175, 449.262 154.561, 448.825 155.249 C 448.388 155.937, 448.024 157.962, 448.015 159.750 C 447.998 163.530, 450.677 166.659, 454.725 167.583 C 457.584 168.236, 468.558 172.774, 475.345 176.110 C 477.459 177.150, 479.766 178, 480.472 178 C 481.178 178, 482.315 178.675, 483 179.500 C 483.685 180.325, 484.928 181, 485.762 181 C 486.596 181, 489.579 182.425, 492.389 184.168 C 495.200 185.910, 498.400 187.841, 499.500 188.458 C 515.702 197.551, 536.045 214.135, 550.537 230.063 C 569.227 250.604, 586.124 278.980, 596.948 308 C 598.692 312.675, 601.041 317.288, 602.170 318.250 C 606.661 322.081, 611.910 319.540, 614.562 312.252 C 616.539 306.821, 620.326 297.582, 623.273 291 C 629.277 277.594, 630.166 275.947, 641.439 257.349 C 655.421 234.284, 681.070 208.808, 705.701 193.522 C 712.339 189.402, 722.996 183.294, 726 181.888 C 727.375 181.244, 731.684 179.206, 735.575 177.359 C 739.466 175.511, 742.958 174, 743.335 174 C 743.713 174, 745.929 173.107, 748.261 172.016 C 750.592 170.925, 754.953 169.202, 757.951 168.187 C 764.679 165.910, 767.506 162.582, 766.521 158.097 C 765.744 154.560, 763.031 152.871, 751.454 148.718 C 744.581 146.252, 732.510 141.010, 728.500 138.749 C 727.400 138.129, 724.700 136.742, 722.500 135.669 C 720.300 134.595, 714.266 131.050, 709.091 127.791 C 670.569 103.532, 640.549 68.897, 622.596 28 C 621.027 24.425, 618.947 19.700, 617.974 17.500 C 617.001 15.300, 615.652 11.636, 614.976 9.357 C 613.262 3.578, 609.948 -0.012, 606.384 0.050 C 604.798 0.077, 602.956 0.640, 602.291 1.300 M 269 199.989 C 218.456 202.374, 167.142 209.789, 126 220.652 C 104.623 226.297, 64.244 239.331, 60.107 241.922 C 59.164 242.513, 49.230 292.074, 29.396 395.148 C 13.271 478.941, 0.176 547.847, 0.296 548.271 C 0.416 548.695, 35.596 568.141, 78.474 591.483 L 156.435 633.924 186.639 476.887 C 203.251 390.517, 217.057 319.293, 217.319 318.611 C 218.293 316.074, 244.787 309.506, 264.410 306.936 C 278.227 305.127, 309.335 306.240, 320 308.925 C 358.733 318.677, 373.351 346.938, 365.140 396.201 C 363.976 403.186, 349.968 477.009, 334.012 560.251 C 318.055 643.493, 305 712.314, 305 713.187 C 305 714.260, 330.134 728.452, 382.568 756.986 C 425.230 780.202, 460.397 798.937, 460.715 798.618 C 461.415 797.918, 534.234 421.399, 536.724 405.608 C 539.243 389.626, 539.199 346.654, 536.648 332.500 C 534.481 320.479, 528.459 301.848, 523.660 292.318 C 517.594 280.272, 507.965 266.980, 498.498 257.583 C 466.689 226.013, 418.903 207.427, 353 200.994 C 338.438 199.573, 290.073 198.994, 269 199.989" stroke="none" fill="#0073e6" fill-rule="evenodd"/></svg>