<svg xmlns="http://www.w3.org/2000/svg" viewBox="0 0 2976 508"><path d="M1006.667 15.667c-.367.366-.667 87.666-.667 194V403h52.891l.371-80.25c.357-77.344.447-80.586 2.482-89.527 7.706-33.863 22.486-54.682 47.062-66.294 11.792-5.572 21.664-7.382 40.194-7.374 19.172.009 27.937 1.8 41.5 8.479 19.082 9.396 35.182 29.975 41.438 52.966 4.817 17.703 5.05 22.521 5.056 104.75L1237 403h53l-.01-74.75c-.006-42.979-.45-79.85-1.045-86.75-4.247-49.282-23.545-87.978-56.401-113.091-30.895-23.614-83.95-31.355-121.778-17.768-17.613 6.327-29.338 14.024-43.086 28.286l-8.68 9.004V15h-25.833c-14.209 0-26.134.3-26.5.667m1419 0c-.367.366-.667 29.665-.667 65.109v64.442l-8.507-8.053c-17.883-16.928-43.016-28.601-69.318-32.195-12.494-1.708-39.749-.734-51.675 1.845-60.098 12.998-100.85 58.548-110.009 122.964-1.383 9.722-1.635 16.368-1.215 31.996.691 25.716 3.162 39.171 10.787 58.737 17.182 44.084 52.289 73.833 100.437 85.109 11.32 2.651 13.303 2.81 35 2.81s23.68-.159 35-2.81c13.925-3.261 26.649-7.949 38.112-14.042 32.3-17.169 56.157-48.787 66.848-88.594 7.242-26.965 7.518-33.157 7.53-169.235L2478 15h-25.833c-14.209 0-26.134.3-26.5.667m104.6 143.583c.365 155.877.175 150.083 5.698 173.34 7.739 32.586 26.497 56.027 53.709 67.122 14.369 5.858 25.072 7.651 45.826 7.677 14.645.018 19.801-.37 27.662-2.085 12.539-2.736 23.917-6.347 24.461-7.763.387-1.009-13.971-49.223-14.95-50.201-.224-.225-4.405.785-9.29 2.244-11.858 3.539-32.533 4.515-42.389 1.999-17.601-4.493-28.591-17.458-34.4-40.583-4.339-17.272-4.594-26.418-4.594-164.922V15h-52.07zm-1809.997 1.5c.32 98.467.551 112.025 2.082 122.25 6.567 43.858 19.376 74.124 40.335 95.311 20.497 20.72 47.258 30.622 82.887 30.671 49.654.068 84.52-23.397 109.924-73.977 5.65-11.252 9.787-22.135 8.774-23.086-1.037-.974-39.774-23.791-41.543-24.47-.971-.372-2.245 1.524-4.207 6.259-7.463 18.011-19.528 36.617-29.642 45.71-16.26 14.619-46.705 18.875-70.433 9.846-19.069-7.255-33.716-26.066-40.413-51.901-4.604-17.763-5.268-27.053-5.756-80.613l-.463-50.75H952v-56H772V50h-52.089zm732.025-54.79c-51.014 8.979-88.292 45.232-102.275 99.462-6.44 24.978-6.33 23.12-6.751 114.328l-.384 83.25h51.931l.46-78.25c.387-65.824.715-79.759 2.07-87.75 5.745-33.88 20.307-57.246 42.706-68.526 12.663-6.377 20.357-7.973 38.448-7.973 18.253 0 25.288 1.492 40.37 8.56 4.624 2.166 8.754 3.939 9.179 3.939.424 0 5.595-11.363 11.49-25.25s10.918-25.598 11.163-26.023c.595-1.034-12.369-6.877-23.624-10.648-20.976-7.027-51.911-9.145-74.783-5.119M1671 104.62c-25.903 3.134-52.839 14.295-72.266 29.946-16.476 13.272-28.03 27.918-37.817 47.934-7.087 14.492-11.223 26.902-14.129 42.393-2.882 15.359-3.112 47.297-.451 62.607 9.764 56.186 44.899 97.717 96.699 114.302 17.811 5.703 25.222 6.7 49.464 6.656 18.996-.034 23.434-.348 32.5-2.303 22.168-4.778 42.166-12.796 57.092-22.891 7.888-5.334 22.551-17.676 24.241-20.402.831-1.341-2.142-5.026-16.336-20.25-9.544-10.237-17.706-18.612-18.137-18.612s-3.614 2.528-7.072 5.617c-13.075 11.68-28.857 18.548-51.527 22.424-23.723 4.056-46.62 1.308-64.759-7.77-18.196-9.107-32.899-23.924-40.456-40.771-1.92-4.28-6.046-15.257-6.046-16.085 0-.149 28.688-.453 63.75-.676 71.191-.452 75.405-.779 95.45-7.41 14.082-4.657 21.658-9.173 30.975-18.461 13.13-13.091 19.537-29.572 20.549-52.868.914-21.03-3.477-37.033-14.801-53.946-15.629-23.341-42.234-39.945-75.423-47.071-7.753-1.664-14.269-2.219-29-2.467-10.45-.176-20.575-.129-22.5.104m298.5.902c-29.686 4.785-55.522 17.116-75.245 35.916-11.993 11.43-17.243 17.94-24.844 30.803-19.952 33.765-26.373 81.53-16.766 124.719 6.505 29.239 19.19 53.011 38.65 72.429 18.697 18.656 39.114 29.757 66.705 36.268 14.22 3.355 42.718 4.331 57.156 1.957 25.493-4.191 50.705-16.508 67.493-32.973l7.351-7.209V403h52v-76.039c0-46.675-.408-79.79-1.058-85.75-6.994-64.207-40.957-111.178-93.112-128.775-18.181-6.134-27.042-7.569-49.33-7.988-14.288-.269-22.57.038-29 1.074m721.5 79.927c0 80.44.324 87.22 5.17 108.051 4.456 19.155 12.918 39.265 22.701 53.947 2.546 3.82 8.409 10.925 13.03 15.789 25.527 26.869 56.843 39.764 96.567 39.764 16.853 0 27.913-1.716 42.532-6.598 21.077-7.039 36.971-18.1 48-33.402l3.243-4.5-.698 7.5c-2.113 22.728-9.467 42.221-21.77 57.703-13.145 16.541-31.482 25.993-56.775 29.265-22.047 2.852-50.653-1.262-67.5-9.708-11.165-5.597-23.981-16.83-33.669-29.51-3.256-4.262-6.288-7.75-6.736-7.75-1.055 0-42.066 22.571-43.357 23.862-.639.639.344 3.178 2.829 7.309 17.806 29.597 44.564 51.54 75.478 61.898 23.875 7.998 54.469 10.804 80.654 7.395 35.259-4.59 60.028-16.782 83.076-40.89 21.398-22.383 33.708-51.388 40.35-95.074.89-5.854 1.317-41.86 1.592-134.25l.376-126.25h-53.005l-.357 80.75c-.345 78.04-.427 81.037-2.459 89.314-10.298 41.933-36.623 64.326-79.978 68.031-27.153 2.321-50.089-4.688-66.987-20.469-16.648-15.547-26.208-36.637-29.199-64.415-.704-6.541-1.108-36.326-1.108-81.75V110h-52zm-1018.5-25.017c-37.027 6.377-62.842 30.378-70.789 65.818l-1.513 6.75 61.151-.004c66.729-.004 73.984-.478 84.257-5.504 10.172-4.977 15.086-14.571 14.152-27.628-1.265-17.684-15.876-31.16-40.688-37.526-12.092-3.103-34.335-4.013-46.57-1.906m307.314-.421c-32.632 5.169-57.992 24.247-69.738 52.462-6.1 14.653-7.513 22.93-7.513 44.027 0 16.308.315 20.252 2.22 27.836 7.475 29.749 26.648 52.791 52.008 62.502 13.911 5.327 22.013 6.67 39.709 6.583 13.162-.065 17.596-.482 25-2.355 20.244-5.119 36.271-15.34 47.588-30.348 10.979-14.56 17.056-31.088 19.096-51.935 2.089-21.353-1.183-40.89-9.73-58.09-12.749-25.658-32.245-41.714-59.308-48.842-8.741-2.302-30.103-3.301-39.332-1.84m334.725.101c-17.217 2.509-34.144 10.34-47.759 22.095-30.606 26.426-38.96 83.709-18.155 124.484 9.209 18.046 23.171 31.448 40.875 39.233 14.697 6.464 38.13 9.527 54.56 7.131 32.254-4.703 56.402-22.611 70.392-52.203 7.641-16.165 9.054-23.276 9.011-45.352-.044-22.407-1.696-30.928-8.974-46.291-13.342-28.165-33.499-43.292-64.87-48.683-9.526-1.637-25.4-1.824-35.08-.414" fill-rule="evenodd"/><path d="M117.5.582c-22.814 3.004-38.391 8.647-56 20.29-8.677 5.737-27.442 24.274-34.001 33.589C16.642 69.879 8.49 89.442 3.887 111.12.767 125.813.695 153.191 3.739 167c6.592 29.9 21.275 52.762 44.261 68.914 24.248 17.039 59.156 26.995 90.5 25.81 15.222-.575 23.987-2.143 37.754-6.756 18.956-6.35 58.34-28.664 63.732-36.108 7.817-10.79 4.961-25.933-6.316-33.497-3.36-2.254-5.55-2.872-11.273-3.182-8.11-.439-7.736-.589-25.897 10.338-15.423 9.28-28.463 15.803-38.232 19.124-15.368 5.225-41.248 4.196-59.768-2.378-26.189-9.296-41.878-24.583-47.995-46.765-.91-3.3-1.895-11.625-2.19-18.5-1.224-28.562 7.474-52.616 26.428-73.089 14.781-15.966 31.226-23.249 52.308-23.166 17.458.069 31.723 3.681 49.404 12.508 17.423 8.7 33.27 20.304 49.938 36.569 10.645 10.386 47.089 50.624 64.8 71.544l12.693 14.993-8.22 8.637c-22.03 23.15-41.452 49.367-62.081 83.799-22.577 37.684-41.486 93.691-52.056 154.18-2.843 16.274-3.026 19.634-1.368 25.167 4.73 15.79 25.862 21.044 38.149 9.486 4.283-4.03 6.288-9.734 9.181-26.128 4.939-27.984 13.111-61.165 18.473-75 .639-1.65 11.341-23.461 23.783-48.469 21.409-43.034 23.167-46.193 32.832-59 9.954-13.19 29.863-36.031 31.405-36.031.423 0 4.313 3.905 8.643 8.678 8.88 9.788 29.855 29.338 41.873 39.027 17.536 14.139 38.454 26.585 55.456 32.998 3.551 1.339 11.201 3.623 17 5.076 9.334 2.338 12.495 2.641 27.544 2.64 14.015-.001 18.6-.384 26.111-2.181 51.739-12.383 85.542-46.45 96.527-97.281 1.884-8.719 2.268-13.615 2.311-29.457.046-17.113-.183-19.795-2.304-27-9.403-31.944-30.91-55.275-66.328-71.95-18.63-8.771-32.742-11.832-54.317-11.78-23.205.056-39.895 3.519-64.833 13.452-21.574 8.593-39.623 19.99-54.287 34.278-7.466 7.275-8.32 8.506-9.416 13.579-1.719 7.955.547 15.484 6.431 21.369 5.27 5.27 9.886 6.894 18.102 6.371 6.95-.442 8.883-1.537 25.503-14.437 9.721-7.546 29.532-17.64 43.85-22.341 26.279-8.628 49.764-7.73 70.806 2.71 20.5 10.171 33.353 22.929 38.536 38.249 1.738 5.138 2.186 8.7 2.136 17-.225 37.295-17.502 64.52-48.932 77.105-11.521 4.613-20.278 6.156-31.896 5.62-23.93-1.105-46.941-11.897-74.363-34.876-15.037-12.6-41.846-41.168-64.619-68.859-29.959-36.429-74.613-86.217-89.019-99.255C219.911 27.431 184.76 8.372 151 2.616c-8.938-1.523-28.4-2.705-33.5-2.034" fill="#f86251" fill-rule="evenodd"/></svg>