<svg xmlns="http://www.w3.org/2000/svg" viewBox="0 0 1878 639" version="1.1"><path d="" stroke="none" fill="#ffffff" fill-rule="evenodd"/><path d="M 481.094 1.387 C 480.461 2.150, 478.611 6.422, 476.984 10.881 C 470.666 28.193, 458.323 49.455, 446.148 64 C 440.571 70.662, 422.301 89, 421.240 89 C 420.822 89, 419.359 90.037, 417.990 91.304 C 409.184 99.454, 385.690 112.875, 368.742 119.435 C 360.538 122.611, 358.882 123.622, 358.339 125.787 C 357.366 129.662, 359.841 133.103, 364.603 134.499 C 370.580 136.251, 374.017 137.766, 388.491 145.022 C 401.254 151.421, 405.698 154.228, 416.557 162.750 C 419.535 165.088, 422.316 167.015, 422.736 167.033 C 423.156 167.051, 428.050 171.664, 433.612 177.283 C 442.240 186.001, 452.165 198.112, 456.736 205.502 C 466.661 221.546, 470.246 228.790, 479.359 251.214 C 481.970 257.640, 489.763 257.066, 491.455 250.323 C 491.840 248.788, 493.246 245.149, 494.578 242.236 C 495.910 239.324, 497 236.756, 497 236.530 C 497 235.516, 505.242 218.959, 508.216 214 C 510.030 210.975, 512.411 207.002, 513.507 205.170 C 521.317 192.122, 536 175.888, 549.500 165.375 C 563.746 154.280, 592.338 138.754, 607.170 134.059 C 611.914 132.558, 613.210 130.895, 612.818 126.815 C 612.517 123.680, 612.066 123.327, 604.500 120.304 C 594.965 116.496, 585.268 112.281, 582.500 110.743 C 581.400 110.132, 579.150 108.969, 577.500 108.158 C 573.724 106.302, 557.045 95.771, 554.285 93.500 C 553.616 92.950, 552.491 92.050, 551.785 91.500 C 546.059 87.043, 535.684 77.607, 531.993 73.500 C 529.522 70.750, 527.221 68.275, 526.880 68 C 526.540 67.725, 523.927 64.445, 521.074 60.712 C 509.685 45.810, 498.945 26.555, 493.066 10.500 C 489.929 1.935, 488.461 -0, 485.099 -0 C 483.529 -0, 481.727 0.624, 481.094 1.387 M 1813.500 94.605 C 1790.065 97.517, 1773.583 104.577, 1761.117 117.043 C 1738.571 139.589, 1743.871 172.135, 1772.270 185.527 C 1791.126 194.420, 1812.299 195.214, 1834.500 187.861 C 1847.196 183.657, 1855.374 178.785, 1863.771 170.424 C 1869.001 165.216, 1871.938 161.263, 1874.233 156.342 C 1877.172 150.040, 1877.427 148.671, 1877.462 138.982 C 1877.498 129.111, 1877.301 128.062, 1874.266 121.893 C 1868.404 109.979, 1856.264 101.011, 1840.644 97.054 C 1833.411 95.222, 1818.996 93.921, 1813.500 94.605 M 210.500 159.976 C 200.600 160.413, 188.450 161.278, 183.500 161.898 C 178.550 162.518, 171.800 163.272, 168.500 163.574 C 150.526 165.218, 114.550 172.237, 93.500 178.206 C 78.365 182.497, 48.739 192.404, 47.584 193.559 C 46.912 194.231, 45.786 198.093, 45.082 202.140 C 44.378 206.188, 42.969 213.775, 41.950 219 C 40.931 224.225, 39.149 233.450, 37.988 239.500 C 35.765 251.097, 33.032 265.217, 29.957 281 C 28.177 290.134, 26.294 299.955, 22 322.500 C 20.900 328.275, 19.109 337.613, 18.020 343.250 C 16.931 348.887, 15.101 358.450, 13.954 364.500 C 12.807 370.550, 11.022 379.775, 9.987 385 C 8.953 390.225, 7.160 399.450, 6.004 405.500 C 4.848 411.550, 3.022 420.775, 1.945 426 C -0.757 439.119, -0.735 439.269, 4.250 441.824 C 8.035 443.765, 11.242 445.487, 16 448.136 C 16.825 448.596, 19.075 449.802, 21 450.817 C 27.034 454, 36.375 459.124, 39.500 460.966 C 42.373 462.659, 51.009 467.371, 55.750 469.832 C 56.987 470.474, 59.012 471.526, 60.250 472.168 C 64.991 474.629, 73.627 479.341, 76.500 481.034 C 79.625 482.876, 88.966 488, 95 491.183 C 96.925 492.198, 99.175 493.402, 100 493.859 C 100.825 494.316, 102.625 495.288, 104 496.020 C 115.086 501.920, 119.777 504.508, 121.473 505.660 C 124.851 507.956, 125.784 507.226, 126.472 501.750 C 126.835 498.863, 127.991 492.225, 129.040 487 C 130.089 481.775, 131.857 472.775, 132.969 467 C 136.121 450.632, 138.862 436.445, 141.083 425 C 143.891 410.534, 146.795 395.412, 149.101 383.255 C 151.733 369.381, 156.515 344.534, 161.083 321 C 162.204 315.225, 164.004 305.890, 165.083 300.255 C 174.625 250.428, 173.551 254.564, 177.301 253.208 C 202.073 244.250, 243.784 242.323, 262.546 249.269 C 275.257 253.976, 284.057 261.618, 288.708 271.990 C 290.067 275.021, 291.861 281.550, 292.695 286.500 C 294.406 296.654, 293.602 308.661, 289.915 328 C 285.611 350.580, 283.925 359.389, 282.020 369.250 C 280.931 374.887, 279.097 384.450, 277.945 390.500 C 276.793 396.550, 275.018 405.775, 274 411 C 272.982 416.225, 271.207 425.450, 270.055 431.500 C 268.903 437.550, 267.069 447.113, 265.980 452.750 C 264.891 458.388, 263.100 467.725, 262 473.500 C 260.900 479.275, 259.100 488.725, 258 494.500 C 256.900 500.275, 255.109 509.613, 254.020 515.250 C 252.931 520.888, 251.104 530.450, 249.960 536.500 C 248.817 542.550, 247.005 551.550, 245.934 556.500 C 244.863 561.450, 243.989 567.139, 243.993 569.141 C 243.999 572.382, 244.413 572.967, 247.750 574.459 C 249.813 575.381, 253.750 577.420, 256.500 578.990 C 259.250 580.560, 262.850 582.531, 264.500 583.369 C 271.157 586.752, 282.558 593.187, 283.450 594.065 C 283.972 594.579, 285.210 595, 286.200 595 C 287.190 595, 288 595.401, 288 595.891 C 288 596.382, 289.687 597.525, 291.750 598.433 C 293.813 599.341, 296.850 600.852, 298.500 601.792 C 305.420 605.732, 320.823 614.189, 328 617.988 C 329.375 618.715, 331.175 619.684, 332 620.141 C 332.825 620.598, 335.075 621.802, 337 622.817 C 338.925 623.833, 343.087 626.089, 346.250 627.832 C 349.413 629.574, 354.587 632.392, 357.750 634.094 C 360.913 635.796, 363.927 637.596, 364.450 638.094 C 366.025 639.596, 368.831 639.115, 369.379 637.250 C 369.662 636.288, 370.176 633.700, 370.521 631.500 C 370.866 629.300, 371.993 623.225, 373.025 618 C 374.057 612.775, 375.844 603.550, 376.995 597.500 C 378.145 591.450, 379.948 582.225, 381 577 C 382.052 571.775, 383.833 562.663, 384.957 556.750 C 391.195 523.931, 393.805 510.362, 397.024 494 C 398.053 488.775, 399.818 479.663, 400.947 473.750 C 403.504 460.359, 406.341 445.652, 409 432 C 410.125 426.225, 411.935 416.887, 413.022 411.250 C 414.110 405.613, 415.890 396.387, 416.978 390.750 C 419.290 378.764, 422.250 363.553, 425.006 349.500 C 430.271 322.647, 431 316, 431 294.875 C 431 276.890, 430.692 272.797, 428.588 262.876 C 423.190 237.412, 414.482 221.205, 397.078 204.227 C 374.690 182.389, 341.748 168.632, 296 162.015 C 280.064 159.711, 238.820 158.727, 210.500 159.976 M 630.500 225.099 C 558.527 230.095, 503.473 260.961, 471.682 314.141 C 445.001 358.773, 437.542 421.246, 453.930 462.823 C 469.570 502.502, 503.868 528.804, 552.618 538.504 C 585.554 545.058, 636.623 544.283, 684.635 536.501 C 710.014 532.388, 744.197 522.867, 744.807 519.742 C 745.128 518.097, 735.123 452.789, 734.446 452.112 C 734.233 451.899, 728.533 453.371, 721.779 455.383 C 678.359 468.320, 628.604 472.305, 602.124 464.967 C 580.605 459.004, 566.178 444.217, 564.351 426.250 C 564.001 422.813, 563.892 419.968, 564.108 419.929 C 564.323 419.890, 613.265 413.419, 672.868 405.548 C 741.839 396.440, 781.505 390.802, 781.976 390.039 C 782.781 388.737, 785.547 368.779, 786.493 357.448 C 787.272 348.123, 785.419 325.901, 782.890 314.228 C 772.319 265.433, 736.741 234.374, 682.498 226.586 C 669.010 224.649, 646.321 224, 630.500 225.099 M 1292.500 224.970 C 1263.055 226.455, 1234.201 230.419, 1205.500 236.922 C 1183.552 241.896, 1170.980 245.731, 1171.491 247.296 C 1171.707 247.958, 1174.640 261.100, 1178.010 276.500 C 1181.379 291.900, 1184.354 305.267, 1184.621 306.205 C 1185.024 307.621, 1185.564 307.734, 1187.803 306.873 C 1193.794 304.569, 1217.986 298.843, 1231.698 296.483 C 1289.879 286.469, 1329.339 290.694, 1336.623 307.718 C 1338.301 311.639, 1338.399 321.104, 1336.849 329.518 L 1335.697 335.766 1326.599 336.434 C 1316.749 337.157, 1293.918 339.411, 1279.500 341.084 C 1274.550 341.658, 1263.750 343.249, 1255.500 344.620 C 1169.044 358.984, 1125.945 385.640, 1113.408 432.500 C 1112.525 435.800, 1111.573 444.350, 1111.292 451.500 C 1110.861 462.440, 1111.111 465.884, 1112.868 473.234 C 1121.860 510.861, 1157.103 533.210, 1220 541.171 C 1235.881 543.181, 1296.602 542.865, 1319 540.656 C 1351.567 537.443, 1383.514 531.630, 1404.942 525.018 C 1410.534 523.292, 1415.300 521.345, 1415.533 520.690 C 1415.767 520.036, 1423.924 478.550, 1433.661 428.500 L 1451.365 337.500 1451.346 319 C 1451.330 303.198, 1451.013 299.351, 1449.172 292.622 C 1437.146 248.664, 1396.736 226.231, 1326.622 224.588 C 1316.655 224.355, 1301.300 224.527, 1292.500 224.970 M 1635 225.020 C 1586.036 227.456, 1544.660 233.938, 1513.483 244.055 L 1507.466 246.008 1479.561 389.254 C 1464.213 468.039, 1451.456 533.288, 1451.211 534.250 C 1450.792 535.903, 1454.192 536, 1512.255 536 L 1573.744 536 1579.924 504.250 C 1583.323 486.788, 1593.866 432.474, 1603.353 383.552 L 1620.603 294.604 1625.551 293.221 C 1632.246 291.350, 1656.417 291.149, 1665.930 292.885 C 1670.016 293.631, 1676.507 295.312, 1680.355 296.621 C 1684.202 297.929, 1687.749 299, 1688.236 299 C 1689.100 299, 1724.323 227.990, 1723.746 227.413 C 1723.586 227.253, 1718.065 226.656, 1711.478 226.086 C 1693.876 224.563, 1655.050 224.022, 1635 225.020 M 812 231.900 C 812 232.541, 872.319 348.361, 886.117 374.214 C 886.864 375.614, 874.147 390.029, 816.868 452.714 C 778.278 494.946, 745.332 530.962, 743.656 532.750 L 740.608 536 804.674 536 L 868.739 536 893.579 503.750 C 939.415 444.242, 935.129 449.393, 936.532 452.117 C 937.206 453.428, 945.296 472.837, 954.509 495.250 L 971.260 536 1038.130 536 C 1074.908 536, 1105 535.828, 1105 535.617 C 1105 535.407, 1085.810 499.519, 1062.356 455.867 C 1038.901 412.215, 1019.701 376.012, 1019.689 375.416 C 1019.677 374.820, 1049.554 342.466, 1086.083 303.518 C 1122.612 264.570, 1152.651 232.317, 1152.836 231.844 C 1153.022 231.368, 1126.910 231.099, 1094.368 231.242 L 1035.563 231.500 1004.032 270.185 C 986.689 291.462, 972.218 308.900, 971.873 308.935 C 971.529 308.971, 963.654 291.457, 954.373 270.017 L 937.500 231.033 874.750 231.017 C 838.219 231.007, 812 231.376, 812 231.900 M 1734.511 232.250 C 1734.074 233.530, 1676 534.472, 1676 535.456 C 1676 535.755, 1703.441 536, 1736.981 536 L 1797.962 536 1798.489 533.750 C 1798.779 532.513, 1811.836 464.900, 1827.504 383.500 C 1843.173 302.100, 1856.228 234.488, 1856.515 233.250 L 1857.038 231 1795.988 231 C 1748.042 231, 1734.846 231.268, 1734.511 232.250 M 620.500 287.961 C 599.576 292.457, 581.391 309.854, 571.884 334.469 C 568.566 343.060, 565.603 353.794, 564.477 361.308 C 563.853 365.469, 563.984 366.001, 565.636 366.009 C 571.296 366.038, 670.607 352.591, 671.157 351.722 C 671.518 351.150, 672.366 346.174, 673.041 340.663 C 676.392 313.306, 668.778 295.704, 650.805 289.260 C 645.828 287.476, 626.593 286.652, 620.500 287.961 M 1309.717 385.117 C 1288.773 387.135, 1264.442 393.919, 1253.577 400.770 C 1237.893 410.659, 1227.959 428.229, 1227.789 446.377 C 1227.695 456.391, 1229.091 461.649, 1233.318 467.208 C 1239.707 475.610, 1251.571 480.722, 1267.500 481.937 C 1280.291 482.913, 1302.634 480.740, 1306.836 478.111 C 1307.672 477.588, 1311.512 460.295, 1317.086 431.952 C 1321.989 407.024, 1326 386.037, 1326 385.314 C 1326 383.833, 1323.367 383.801, 1309.717 385.117" stroke="none" fill="#ffffff" fill-rule="evenodd"/></svg>