<svg version="1.2" xmlns="http://www.w3.org/2000/svg" viewBox="20 0 310 241" width="310" height="241"><style>.s0{fill:none;stroke:#f86251;stroke-linecap:round;stroke-miterlimit:50;stroke-width:23}</style><g id="Layer 1 copy"><g id="Folder 1"/><path id="Shape 1" fill-rule="evenodd" class="s0" d="M122.1 226.5c1.9-12 6.7-44.4 23-75.7 23.6-41.4 41-52.8 41.9-53.5"/><path id="Shape 2" fill-rule="evenodd" class="s0" d="M212.3 68.5c5.4-4.4 10.8-10.4 28.2-17.1 19.6-7.6 35.6-5.5 46.4-.6 34.7 15.8 29.9 41.4 29 48-1.7 13.4-8.3 32.8-32.6 42.1-46.8 17.9-84.4-37.3-109.5-65.9"/><path id="Shape 3" fill-rule="evenodd" class="s0" d="M131.7 103.7c-20.1 13-34.3 20.7-57.2 15.8-31.3-6.8-43.1-27.6-42.2-51.1C33.5 37.6 56 13.4 82 12.3c28.5-1.1 54.4 19.8 71.5 39.5 8.5 9.8 15.4 17 19.1 21.8"/></g></svg>