<svg xmlns="http://www.w3.org/2000/svg" viewBox="0 0 2970 506"><path d="M1000.667 13.667c-.367.366-.667 87.666-.667 194V401h52.891l.371-80.25c.357-77.344.447-80.586 2.482-89.527 7.706-33.863 22.486-54.682 47.062-66.294 11.792-5.572 21.664-7.382 40.194-7.374 19.172.009 27.937 1.8 41.5 8.479 19.082 9.396 35.182 29.975 41.438 52.966 4.817 17.703 5.05 22.521 5.056 104.75L1231 401h53l-.01-74.75c-.006-42.979-.45-79.85-1.045-86.75-4.247-49.282-23.545-87.978-56.401-113.091-30.895-23.614-83.95-31.355-121.778-17.768-17.613 6.327-29.338 14.024-43.086 28.286l-8.68 9.004V13h-25.833c-14.209 0-26.134.3-26.5.667m1419 0c-.367.366-.667 29.665-.667 65.109v64.442l-8.507-8.053c-17.883-16.928-43.016-28.601-69.318-32.195-12.494-1.708-39.749-.734-51.675 1.845-60.098 12.998-100.85 58.548-110.009 122.964-1.383 9.722-1.635 16.368-1.215 31.996.691 25.716 3.162 39.171 10.787 58.737 17.182 44.084 52.289 73.833 100.437 85.109 11.32 2.651 13.303 2.81 35 2.81s23.68-.159 35-2.81c13.925-3.261 26.649-7.949 38.112-14.042 32.3-17.169 56.157-48.787 66.848-88.594 7.242-26.965 7.518-33.157 7.53-169.235L2472 13h-25.833c-14.209 0-26.134.3-26.5.667m104.6 143.583c.365 155.877.175 150.083 5.698 173.34 7.739 32.586 26.497 56.027 53.709 67.122 14.369 5.858 25.072 7.651 45.826 7.677 14.645.018 19.801-.37 27.662-2.085 12.539-2.736 23.917-6.347 24.461-7.763.387-1.009-13.971-49.223-14.95-50.201-.224-.225-4.405.785-9.29 2.244-11.858 3.539-32.533 4.515-42.389 1.999-17.601-4.493-28.591-17.458-34.4-40.583-4.339-17.272-4.594-26.418-4.594-164.922V13h-52.07zm-1809.997 1.5c.32 98.467.551 112.025 2.082 122.25 6.567 43.858 19.376 74.124 40.335 95.311 20.497 20.72 47.258 30.622 82.887 30.671 49.654.068 84.52-23.397 109.924-73.977 5.65-11.252 9.787-22.135 8.774-23.086-1.037-.974-39.774-23.791-41.543-24.47-.971-.372-2.245 1.524-4.207 6.259-7.463 18.011-19.528 36.617-29.642 45.71-16.26 14.619-46.705 18.875-70.433 9.846-19.069-7.255-33.716-26.066-40.413-51.901-4.604-17.763-5.268-27.053-5.756-80.613l-.463-50.75H946v-56H766V48h-52.089zm732.025-54.79c-51.014 8.979-88.292 45.232-102.275 99.462-6.44 24.978-6.33 23.12-6.751 114.328l-.384 83.25h51.931l.46-78.25c.387-65.824.715-79.759 2.07-87.75 5.745-33.88 20.307-57.246 42.706-68.526 12.663-6.377 20.357-7.973 38.448-7.973 18.253 0 25.288 1.492 40.37 8.56 4.624 2.166 8.754 3.939 9.179 3.939.424 0 5.595-11.363 11.49-25.25s10.918-25.598 11.163-26.023c.595-1.034-12.369-6.877-23.624-10.648-20.976-7.027-51.911-9.145-74.783-5.119M1665 102.62c-25.903 3.134-52.839 14.295-72.266 29.946-16.476 13.272-28.03 27.918-37.817 47.934-7.087 14.492-11.223 26.902-14.129 42.393-2.882 15.359-3.112 47.297-.451 62.607 9.764 56.186 44.899 97.717 96.699 114.302 17.811 5.703 25.222 6.7 49.464 6.656 18.996-.034 23.434-.348 32.5-2.303 22.168-4.778 42.166-12.796 57.092-22.891 7.888-5.334 22.551-17.676 24.241-20.402.831-1.341-2.142-5.026-16.336-20.25-9.544-10.237-17.706-18.612-18.137-18.612s-3.614 2.528-7.072 5.617c-13.075 11.68-28.857 18.548-51.527 22.424-23.723 4.056-46.62 1.308-64.759-7.77-18.196-9.107-32.899-23.924-40.456-40.771-1.92-4.28-6.046-15.257-6.046-16.085 0-.149 28.688-.453 63.75-.676 71.191-.452 75.405-.779 95.45-7.41 14.082-4.657 21.658-9.173 30.975-18.461 13.13-13.091 19.537-29.572 20.549-52.868.914-21.03-3.477-37.033-14.801-53.946-15.629-23.341-42.234-39.945-75.423-47.071-7.753-1.664-14.269-2.219-29-2.467-10.45-.176-20.575-.129-22.5.104m298.5.902c-29.686 4.785-55.522 17.116-75.245 35.916-11.993 11.43-17.243 17.94-24.844 30.803-19.952 33.765-26.373 81.53-16.766 124.719 6.505 29.239 19.19 53.011 38.65 72.429 18.697 18.656 39.114 29.757 66.705 36.268 14.22 3.355 42.718 4.331 57.156 1.957 25.493-4.191 50.705-16.508 67.493-32.973l7.351-7.209V401h52v-76.039c0-46.675-.408-79.79-1.058-85.75-6.994-64.207-40.957-111.178-93.112-128.775-18.181-6.134-27.042-7.569-49.33-7.988-14.288-.269-22.57.038-29 1.074m721.5 79.927c0 80.44.324 87.22 5.17 108.051 4.456 19.155 12.918 39.265 22.701 53.947 2.546 3.82 8.409 10.925 13.03 15.789 25.527 26.869 56.843 39.764 96.567 39.764 16.853 0 27.913-1.716 42.532-6.598 21.077-7.039 36.971-18.1 48-33.402l3.243-4.5-.698 7.5c-2.113 22.728-9.467 42.221-21.77 57.703-13.145 16.541-31.482 25.993-56.775 29.265-22.047 2.852-50.653-1.262-67.5-9.708-11.165-5.597-23.981-16.83-33.669-29.51-3.256-4.262-6.288-7.75-6.736-7.75-1.055 0-42.066 22.571-43.357 23.862-.639.639.344 3.178 2.829 7.309 17.806 29.597 44.564 51.54 75.478 61.898 23.875 7.998 54.469 10.804 80.654 7.395 35.259-4.59 60.028-16.782 83.076-40.89 21.398-22.383 33.708-51.388 40.35-95.074.89-5.854 1.317-41.86 1.592-134.25l.376-126.25h-53.005l-.357 80.75c-.345 78.04-.427 81.037-2.459 89.314-10.298 41.933-36.623 64.326-79.978 68.031-27.153 2.321-50.089-4.688-66.987-20.469-16.648-15.547-26.208-36.637-29.199-64.415-.704-6.541-1.108-36.326-1.108-81.75V108h-52zm-1018.5-25.017c-37.027 6.377-62.842 30.378-70.789 65.818l-1.513 6.75 61.151-.004c66.729-.004 73.984-.478 84.257-5.504 10.172-4.977 15.086-14.571 14.152-27.628-1.265-17.684-15.876-31.16-40.688-37.526-12.092-3.103-34.335-4.013-46.57-1.906m307.314-.421c-32.632 5.169-57.992 24.247-69.738 52.462-6.1 14.653-7.513 22.93-7.513 44.027 0 16.308.315 20.252 2.22 27.836 7.475 29.749 26.648 52.791 52.008 62.502 13.911 5.327 22.013 6.67 39.709 6.583 13.162-.065 17.596-.482 25-2.355 20.244-5.119 36.271-15.34 47.588-30.348 10.979-14.56 17.056-31.088 19.096-51.935 2.089-21.353-1.183-40.89-9.73-58.09-12.749-25.658-32.245-41.714-59.308-48.842-8.741-2.302-30.103-3.301-39.332-1.84m334.725.101c-17.217 2.509-34.144 10.34-47.759 22.095-30.606 26.426-38.96 83.709-18.155 124.484 9.209 18.046 23.171 31.448 40.875 39.233 14.697 6.464 38.13 9.527 54.56 7.131 32.254-4.703 56.402-22.611 70.392-52.203 7.641-16.165 9.054-23.276 9.011-45.352-.044-22.407-1.696-30.928-8.974-46.291-13.342-28.165-33.499-43.292-64.87-48.683-9.526-1.637-25.4-1.824-35.08-.414" fill="#040404" fill-rule="evenodd"/><path d="M111.5.625C98.227 2.048 85.168 6.268 71.205 13.646 58.75 20.227 51.259 25.808 40.9 36.222 22.096 55.127 7.219 83.27 2.956 108c-7.234 41.962-.117 75.856 21.629 103 16.671 20.81 37.317 33.121 71.915 42.884 7.255 2.048 24.688 4.116 34.687 4.116 26.541 0 48.439-7.146 80.696-26.333 23.166-13.779 28.073-19.052 28.073-30.167 0-10.623-7.755-20.095-18.24-22.277-8.057-1.676-13.366.131-26.626 9.062-11.395 7.676-34.589 19.08-42.753 21.021-10.362 2.464-23.406 3.144-33.78 1.761-53.655-7.155-80.375-42.179-70.622-92.569 3.048-15.747 7.39-26.19 16.385-39.413 6.925-10.181 22.617-23.146 33.755-27.891 11.944-5.088 26.665-6.351 42.425-3.639 11.241 1.934 18.28 4.305 31 10.441 18.703 9.022 37.748 23.115 56.019 41.452 8.547 8.579 39.824 43.589 54.981 61.544 3.85 4.561 7.455 8.791 8.011 9.4.556.61 2.695 3.103 4.753 5.542l3.743 4.434-8.753 9.067c-20.612 21.347-36.996 43.291-58.319 78.107-14.697 23.998-29.303 57.869-38.792 89.958-2.505 8.471-7.667 27.852-8.524 32-5.196 25.168-7.81 40.277-8.324 48.125-.626 9.545.422 13.463 4.953 18.526 4.483 5.009 7.398 6.617 13.424 7.408 7.423.973 14.401-.957 18.759-5.189 4.789-4.651 6.277-7.804 8.044-17.052.821-4.3 2.854-15.018 4.517-23.818 2.543-13.453 6.117-28.867 9.973-43 3.432-12.581 11.993-36.513 17.529-49 5.261-11.867 8.832-19.04 12.86-25.833 2.556-4.308 4.646-7.995 4.646-8.195 0-.702 21.258-32.873 22.626-34.241.763-.763 1.869-2.287 2.458-3.388s1.679-2.753 2.421-3.672c.743-.919 4.606-5.721 8.585-10.671s10.503-12.357 14.497-16.459l7.263-7.459 8.825 9.423c41.776 44.606 74.736 66.641 113.825 76.096 11.596 2.805 37.933 3.126 49.097.598 24.839-5.624 46.588-16.841 62.576-32.271 8.975-8.663 10.326-10.264 16.498-19.555 20.625-31.046 27.328-78.547 15.365-108.873-10.408-26.382-28.352-44.79-58.536-60.048-13.62-6.885-17.415-8.276-32-11.733-9.003-2.133-40.652-2.364-51-.371-30.773 5.925-62.082 20.263-85 38.928-12.422 10.117-14.085 12.242-16.449 21.032-1.579 5.866.735 13.843 5.567 19.191 3.609 3.995 12.076 8.001 16.909 8.001 4.848 0 12.569-3.907 20.201-10.221 9.264-7.664 14.555-11.28 23.272-15.901 29.25-15.509 57.695-20.538 81.373-14.386 15.438 4.011 30.143 12.633 41.251 24.185 11.885 12.36 15.722 25.296 13.525 45.592-2.808 25.93-10.49 41.201-27.85 55.357-6.701 5.464-20.899 12.414-30.299 14.83-23.179 5.957-46.958.677-73-16.211-22.958-14.889-46.054-37.469-82-80.169-8.525-10.126-17.3-20.49-19.5-23.031-2.2-2.54-5.8-6.795-8-9.455s-4.675-5.613-5.5-6.562c-2.423-2.786-13.41-15.236-14.501-16.431A8692 8692 0 0 1 279.517 88C255.51 61.185 235.746 43.18 218.5 32.418c-1.65-1.029-3.225-2.135-3.5-2.456-2.502-2.924-25.782-14.955-38.192-19.738-9.349-3.603-13.14-4.701-27.924-8.087C143.851.984 117.93-.064 111.5.625" fill="#ff4d45" fill-rule="evenodd"/></svg>