<svg xmlns="http://www.w3.org/2000/svg" viewBox="0 0 820 708"><path d="M208.5 45.046c-6.6.486-18.525 1.605-26.5 2.487s-19.675 2.481-26 3.552-17.35 3.352-24.5 5.068-17.5 4.67-23 6.565-14.197 5.49-19.327 7.99-12.406 6.998-16.168 9.996c-3.763 2.997-7.905 7.103-9.205 9.123s-3.019 5.023-3.82 6.673c-1.153 2.374-1.525 9.327-1.785 33.326-.211 19.473.065 32.178.769 35.5.604 2.846 2.495 7.199 4.203 9.674 1.707 2.475 5.569 6.618 8.58 9.206 3.012 2.589 9.546 6.809 14.52 9.378s12.463 5.917 16.639 7.44l7.594 2.769.255 95.949.255 95.949-10.948 4.196c-6.022 2.308-13.98 5.865-17.685 7.905s-9.388 6.149-12.628 9.132-7.097 7.707-8.57 10.5L58.5 432.5v68l2.321 4.349c1.277 2.393 4.155 6.339 6.396 8.771 2.241 2.431 7.133 6.454 10.871 8.939s10.085 6.03 14.104 7.878 11.358 4.786 16.308 6.529 15.112 4.674 22.582 6.512c7.471 1.839 19.171 4.27 26 5.403s18.268 2.73 25.418 3.548 20.192 1.956 28.983 2.529S240.531 556 256.5 556s36.226-.458 45.017-1.017 22.058-1.689 29.483-2.511c7.425-.821 19.053-2.421 25.841-3.554 6.787-1.133 18.487-3.572 26-5.421 7.512-1.849 17.61-4.759 22.438-6.468 4.829-1.708 12.029-4.616 16-6.462s9.582-4.879 12.467-6.74 7.681-5.751 10.658-8.644 6.466-7.38 7.754-9.972l2.342-4.711v-68l-2.37-4.772c-1.339-2.696-5.255-7.416-9-10.851-4.549-4.171-9.77-7.613-16.63-10.963-5.5-2.686-13.15-5.945-17-7.241l-7-2.358v-22.547l23.5-10.399c14.634-6.476 24.349-11.358 25.75-12.94 1.592-1.798 2.25-3.8 2.25-6.848 0-3.322-.604-4.912-2.636-6.945-1.45-1.45-3.588-2.706-4.75-2.792-1.163-.085-3.17-.061-4.46.053-1.29.115-10.413 3.785-20.273 8.156-9.861 4.371-18.145 7.947-18.411 7.947s-.367-33.088-.226-73.528l.256-73.528 10.556-4.243c5.806-2.334 13.753-6.142 17.66-8.463s9.525-6.434 12.486-9.139c2.96-2.706 6.714-7.323 8.34-10.26l2.958-5.339v-66l-2.256-4.222c-1.241-2.322-3.701-5.868-5.466-7.878-1.766-2.011-5.475-5.314-8.244-7.341-2.769-2.026-7.509-5.068-10.534-6.759s-9.601-4.698-14.614-6.683-13.563-4.983-19-6.663c-5.437-1.679-17.536-4.58-26.886-6.445s-22.625-4.087-29.5-4.937c-6.875-.849-17.225-2.036-23-2.638s-29.625-1.246-53-1.432-47.9.059-54.5.544m9 21.032c-7.7.43-19.175 1.287-25.5 1.905s-18.579 2.21-27.23 3.537-20.871 3.566-27.154 4.975-16.304 4.142-22.27 6.074c-5.965 1.931-14.583 5.318-19.151 7.526s-10.081 5.791-12.25 7.96c-2.762 2.762-3.945 4.806-3.945 6.818 0 2.115 1.164 3.945 4.416 6.943 2.429 2.239 7.071 5.411 10.316 7.049s10.56 4.6 16.256 6.583c5.695 1.982 14.891 4.754 20.434 6.159s17.728 3.838 27.078 5.405 24.425 3.585 33.5 4.482 27.3 1.973 40.5 2.391 34.8.421 48 .005c13.2-.415 31.2-1.47 40-2.343s22.975-2.714 31.5-4.091c8.525-1.376 20.225-3.627 26-5.001s14.775-3.897 20-5.607c5.225-1.709 13.262-4.886 17.86-7.059s10.336-5.772 12.75-7.997c3.229-2.976 4.39-4.807 4.39-6.919 0-2.012-1.183-4.056-3.945-6.818-2.169-2.169-7.682-5.737-12.25-7.927-4.568-2.191-13.125-5.565-19.017-7.497s-15.792-4.65-22-6.039-16.843-3.429-23.633-4.533-18.715-2.688-26.5-3.519c-7.785-.832-22.48-1.968-32.655-2.525-10.175-.558-28.175-.947-40-.866s-27.8.499-35.5.929m13.881 29.832c-1.716 1.046-3.628 3.36-4.249 5.142-.793 2.274-.829 4.359-.122 6.986.562 2.086 2.096 4.457 3.464 5.353L232.93 115h48.14l2.456-1.609c1.393-.913 2.905-3.277 3.494-5.463.801-2.977.707-4.646-.413-7.325-.817-1.955-2.772-4.154-4.479-5.037-2.484-1.284-7.037-1.565-25.328-1.562l-22.3.003zM80 148.072v15.238l3.803 3.618c2.092 1.989 6.929 5.251 10.75 7.247s10.944 5.032 15.83 6.746 14.306 4.486 20.935 6.159 18.382 4.109 26.117 5.411c7.736 1.303 20.365 3.072 28.065 3.932s21.65 2.013 31 2.561 27.48 1.001 40.289 1.006c12.808.006 31.033-.46 40.5-1.033 9.466-.574 24.861-1.929 34.211-3.01 9.35-1.082 23.075-3.107 30.5-4.502s18.675-3.898 25-5.564 16.023-4.796 21.551-6.954 12.196-5.283 14.817-6.945c2.62-1.662 5.86-4.204 7.198-5.648l2.434-2.626v-14.854c0-8.17-.283-14.854-.628-14.854s-2.933 1.314-5.75 2.92-8.722 4.348-13.122 6.092c-4.4 1.745-11.6 4.311-16 5.703s-12.335 3.581-17.634 4.865c-5.299 1.283-15.199 3.288-22 4.456-6.801 1.167-19.566 2.968-28.366 4.002s-28.904 2.437-44.675 3.117c-22.623.976-34.549.982-56.5.025-15.304-.668-35.25-2.07-44.325-3.117s-20.775-2.635-26-3.529-14.45-2.764-20.5-4.155-15.95-4.122-22-6.068-16.175-6.067-22.5-9.158a3354 3354 0 0 0-12.25-5.971c-.412-.192-.75 6.509-.75 14.89m51 152.569V392l1.75.031c.963.017 5.097.465 9.187.996s18.189 1.405 31.331 1.943c15.623.64 31.05.638 44.563-.006 11.368-.541 26.744-1.672 34.169-2.513 7.425-.842 20.25-2.654 28.5-4.028s20.85-3.859 28-5.525c7.15-1.665 19.578-5.006 27.618-7.425s18.165-5.698 22.5-7.288 11.37-4.349 15.632-6.131l7.75-3.241V209.282l-12.25 2.361c-6.738 1.298-18.857 3.248-26.931 4.334s-23.375 2.681-34 3.547c-12.387 1.008-31.159 1.573-52.319 1.573s-39.932-.565-52.319-1.573c-10.625-.866-25.925-2.462-34-3.547-8.074-1.086-20.193-3.036-26.931-4.334L131 209.282zm370.143 57.892c-1.655 1.393-3.519 4.077-4.142 5.965-.676 2.046-.893 6.172-.538 10.217.327 3.732.852 9.485 1.166 12.785s1.425 10.324 2.469 15.608 3.469 14.283 5.389 19.997c1.921 5.713 3.947 10.54 4.503 10.725.555.185 1.01 1.01 1.01 1.832s1.849 4.945 4.109 9.161 5.493 9.467 7.185 11.671 6.03 6.957 9.641 10.565 8.815 8.143 11.565 10.079 7.801 4.95 11.225 6.699 6.574 3.083 7 2.966c.426-.118 2.125.502 3.775 1.377s6.6 2.424 11 3.443c6.066 1.404 11.868 1.842 24 1.814 10.903-.025 18.708-.577 24.5-1.733 4.675-.933 9.737-1.923 11.25-2.2s3.763-.699 5-.938c1.237-.238 5.625-.894 9.75-1.457s9.75-1.32 12.5-1.684 11.797-.657 20.105-.654 16.507.314 18.221.691c2.525.554 2.885.937 1.895 2.015-.671.733-1.446 1.269-1.721 1.193-.275-.077-3.2 1.399-6.5 3.279-3.3 1.881-6.225 3.674-6.5 3.985s-1.048.674-1.717.805c-.67.132-3.37 1.526-6 3.098s-10.408 6.021-17.283 9.885c-6.875 3.865-15.65 8.734-19.5 10.819s-8.8 4.799-11 6.029-7.491 4.192-11.757 6.583a10022 10022 0 0 1-22 12.269A51987 51987 0 0 0 577 558.078c-4.675 2.604-14.125 7.889-21 11.744a2627 2627 0 0 1-23 12.732c-5.775 3.146-10.775 6.147-11.112 6.669s-.786.812-1 .646-3.088 1.228-6.388 3.099c-3.3 1.87-6.225 3.655-6.5 3.966s-1.175.713-2 .893c-.825.179-3.75 1.701-6.5 3.381s-5.331 3.558-5.735 4.173-.741.759-.75.32c-.008-.439-3.053.874-6.765 2.919s-10.005 5.667-13.983 8.049-7.519 4.331-7.869 4.331-3.395 1.683-6.767 3.739-6.356 3.751-6.631 3.765c-.275.013-3.2 1.564-6.5 3.444-3.3 1.881-6.331 3.9-6.735 4.486s-.741.677-.75.201c-.008-.476-1.159-.116-2.556.8s-4.435 2.692-6.75 3.947a454 454 0 0 0-7.868 4.381c-2.012 1.155-4.667 2.919-5.9 3.919a87 87 0 0 0-4.091 3.568c-1.018.962-1.85 2.665-1.85 3.782 0 1.189.934 2.385 2.25 2.883 1.238.468 2.601.643 3.031.39.429-.254 2.273-.6 4.098-.769s8.223-2.441 14.219-5.046 11.127-5.063 11.402-5.46 1.696-1.014 3.157-1.372c1.462-.357 4.837-1.621 7.5-2.809s5.293-2.276 5.843-2.417 8.875-3.704 18.5-7.917 18.962-8.098 20.75-8.634 3.25-1.404 3.25-1.928.347-.841.77-.703c.424.137 2.787-.583 5.25-1.602 2.464-1.018 6.955-2.907 9.98-4.196l13.5-5.757c4.4-1.876 9.462-3.98 11.25-4.674s3.25-1.734 3.25-2.309.256-.789.569-.477 3.272-.529 6.576-1.872 6.76-2.831 7.681-3.309c.921-.477 10.449-4.55 21.174-9.05s22.65-9.536 26.5-11.19c3.85-1.655 10.15-4.366 14-6.026s8.35-3.613 10-4.339 6.15-2.638 10-4.247 12.917-5.463 20.149-8.564S676.294 550 676.899 550s1.101-.375 1.101-.833c0-.459.563-.864 1.25-.902.688-.037 9.125-3.52 18.75-7.74 9.625-4.219 18.962-8.11 20.75-8.646 1.788-.535 3.25-1.327 3.25-1.759 0-.433.563-.788 1.25-.79s8.295-3.399 16.905-7.549l15.655-7.546 2.468 4.632c1.357 2.548 2.758 5.87 3.114 7.383s1.088 2.75 1.627 2.75c.54 0 .981.623.981 1.385s1.07 2.086 2.379 2.944c1.402.918 4.485 1.542 7.506 1.519l5.128-.04 3.065-3.654 3.065-3.654-.397-5c-.218-2.75-1.517-7.25-2.886-10s-3.342-6.414-4.382-8.142l-1.891-3.143 6.457-6.47c3.551-3.558 6.942-7.106 7.536-7.883s1.884-2.64 2.865-4.138 1.453-2.724 1.048-2.724c-.406 0-.295-.562.247-1.25.541-.687 1.281-2.491 1.643-4.009.411-1.718.079-3.88-.879-5.733-.846-1.636-2.993-3.736-4.771-4.667-1.968-1.03-6.478-1.869-11.525-2.144-4.965-.271-10.784.088-14.5.894-3.415.741-6.545 1.248-6.958 1.128s-.75.306-.75.948-.252.914-.56.606-2.671.038-5.25.768c-2.58.731-6.651 2.048-9.048 2.927-2.745 1.005-4.782 1.255-5.5.673-.628-.508-3.258-1.635-5.843-2.504s-5.736-1.809-7-2.088-4.999-1.186-8.299-2.014c-3.3-.829-9.375-1.842-13.5-2.254s-14.025-.658-22-.55-19.45.859-25.5 1.669-17.75 2.685-26 4.166c-10.762 1.932-18.435 2.701-27.159 2.72-9.534.021-14.176-.483-21.5-2.332-5.138-1.297-10.908-3.392-12.823-4.656S562.153 460 561.686 460s-2.838-1.629-5.268-3.62-4.418-3.34-4.418-2.998c0 .343-1.485-1.065-3.3-3.129a182 182 0 0 1-6.367-7.753c-1.688-2.2-5.063-7.825-7.501-12.5s-4.474-8.725-4.524-9-1.314-4.508-2.808-9.407c-1.494-4.9-3.311-12.325-4.037-16.5-.725-4.176-1.602-10.068-1.948-13.093-.347-3.025-.746-8.202-.889-11.505-.162-3.764-.943-7.049-2.091-8.801-1.008-1.538-3.093-3.448-4.634-4.245S509.536 356 507.626 356c-2.257 0-4.526.886-6.483 2.533M370.5 386.597c-4.95 1.9-16.2 5.666-25 8.368s-19.6 5.815-24 6.915-14.525 3.343-22.5 4.984-21.025 3.9-29 5.02-19.9 2.617-26.5 3.326c-7.864.845-25.269 1.257-50.5 1.193-27.065-.069-41.841-.524-49.75-1.535L132 413.431v16.434l1.75.476c.963.261 4.9 1.182 8.75 2.047 3.85.864 13.525 2.48 21.5 3.591 7.975 1.11 20.125 2.496 27 3.08s28.7 1.318 48.5 1.632c22.268.353 44.392.125 58-.598 12.1-.644 28.008-1.828 35.351-2.632s19.043-2.339 26-3.41 15.012-2.458 17.899-3.082l5.25-1.135v-23.417c0-18.105-.284-23.401-1.25-23.346-.687.039-5.3 1.626-10.25 3.526m-269.841 34.998c-4.313 1.869-9.263 4.372-11 5.561s-4.622 3.528-6.409 5.199c-1.819 1.7-3.25 4.036-3.25 5.306 0 1.248 1.355 3.812 3.011 5.698 1.655 1.886 6.493 5.232 10.75 7.436s11.789 5.433 16.739 7.177 13.95 4.444 20 6.001c6.05 1.556 17.75 3.989 26 5.406 8.25 1.418 20.85 3.243 28 4.057s21.701 2.008 32.335 2.653c11.888.721 31.723.961 51.5.623 17.691-.303 37.565-1.054 44.165-1.668 6.6-.615 19.875-2.244 29.5-3.621s23.575-3.882 31-5.568c7.425-1.687 18.789-4.797 25.254-6.912s15.425-5.756 19.913-8.09c4.487-2.335 9.66-5.747 11.496-7.582 1.835-1.836 3.337-4.356 3.337-5.601 0-1.325-1.556-3.722-3.75-5.778-2.062-1.932-5.55-4.632-7.75-5.998s-6.756-3.702-10.125-5.19c-3.369-1.487-6.406-2.704-6.75-2.704s-.625 5.21-.625 11.577v11.577l-2.792 2.791c-1.618 1.619-5.295 3.526-8.75 4.539-3.277.96-10.008 2.588-14.958 3.616s-13.779 2.541-19.62 3.362-18.256 2.189-27.588 3.04c-9.333.852-30.445 1.934-46.915 2.406-16.766.48-42.657.476-58.822-.009-15.881-.477-35.891-1.567-44.465-2.422s-20.09-2.218-25.59-3.028-13.6-2.194-18-3.074c-4.4-.881-10.779-2.458-14.176-3.506-4.199-1.294-6.999-2.882-8.75-4.963L111 440.847v-11.424c0-8.524-.317-11.398-1.25-11.325-.687.055-4.779 1.628-9.091 3.497M80 481.723v15.279l4.18 4.056c2.298 2.231 7.811 5.783 12.25 7.894 4.438 2.111 12.345 5.268 17.57 7.015 5.225 1.748 14.031 4.252 19.569 5.565 5.538 1.312 15.213 3.302 21.5 4.42 6.287 1.119 19.081 2.924 28.431 4.011s27.125 2.501 39.5 3.142c13.382.693 32.834.91 48 .537 14.025-.344 30.9-1.09 37.5-1.657s19.074-1.927 27.721-3.024 20.346-2.912 26-4.036c5.653-1.125 13.879-2.937 18.279-4.029 4.4-1.091 12.275-3.373 17.5-5.07s13.262-4.864 17.86-7.037 10.336-5.772 12.75-7.997l4.39-4.047v-30.301l-10.518 5.178c-5.785 2.848-16.247 6.989-23.25 9.203s-17.907 5.176-24.232 6.582c-6.325 1.407-15.55 3.224-20.5 4.038s-14.625 2.158-21.5 2.984-19.475 2.015-28 2.64-30.35 1.136-48.5 1.136-39.975-.511-48.5-1.136-21.125-1.813-28-2.64c-6.875-.826-16.55-2.169-21.5-2.984-4.95-.814-14.175-2.631-20.5-4.038-6.325-1.406-17.229-4.368-24.232-6.582s-17.465-6.355-23.25-9.203L80 466.444zm674.25-5.017c-1.237.238-2.25.776-2.25 1.194 0 .419 1.913 2.153 4.25 3.855s5.74 4.478 7.562 6.17c1.821 1.691 3.849 3.075 4.506 3.075s1.752-1.785 2.433-3.966c.945-3.029.965-4.563.084-6.497-.736-1.616-2.451-2.891-4.744-3.528-1.975-.549-4.941-.939-6.591-.867s-4.013.325-5.25.564m-34.155 18.924c-2.285 2.595-4.331 6.112-4.7 8.077-.522 2.781-.22 3.913 1.504 5.636l2.157 2.157 8.222-.046c5.886-.033 9.896-.664 14.112-2.223 3.24-1.198 6.165-2.452 6.5-2.787s-.786-1.81-2.49-3.277-3.96-3.342-5.013-4.167-3.708-2.346-5.901-3.38a255 255 0 0 0-7.165-3.234l-3.179-1.354z" fill-rule="evenodd"/><path d="M520 374.5c0 .275.225.5.5.5s.5-.225.5-.5-.225-.5-.5-.5-.5.225-.5.5m10 47c0 .275.225.5.5.5s.5-.225.5-.5-.225-.5-.5-.5-.5.225-.5.5M510 435c0 .733.3 1.033.667.667a.95.95 0 0 0 0-1.334c-.367-.366-.667-.066-.667.667m4 8.5c0 .275.225.5.5.5s.5-.225.5-.5-.225-.5-.5-.5-.5.225-.5.5m37 10c0 .275.225.5.5.5s.5-.225.5-.5-.225-.5-.5-.5-.5.225-.5.5m108 8c0 .275.225.5.5.5s.5-.225.5-.5-.225-.5-.5-.5-.5.225-.5.5m39 0c0 .275.225.5.5.5s.5-.225.5-.5-.225-.5-.5-.5-.5.225-.5.5m-171 1c0 .275.225.5.5.5s.5-.225.5-.5-.225-.5-.5-.5-.5.225-.5.5m42.333 2.167a.95.95 0 0 0 1.334 0c.366-.367.066-.667-.667-.667s-1.033.3-.667.667M721 465.5c0 .275.225.5.5.5s.5-.225.5-.5-.225-.5-.5-.5-.5.225-.5.5m34 0c0 .275.225.5.5.5s.5-.225.5-.5-.225-.5-.5-.5-.5.225-.5.5m-19 5c0 .275.225.5.5.5s.5-.225.5-.5-.225-.5-.5-.5-.5.225-.5.5m57 9c0 .275.225.5.5.5s.5-.225.5-.5-.225-.5-.5-.5-.5.225-.5.5m-241 3c0 .275.225.5.5.5s.5-.225.5-.5-.225-.5-.5-.5-.5.225-.5.5m117 2c0 .275.225.5.5.5s.5-.225.5-.5-.225-.5-.5-.5-.5.225-.5.5M562.5 487c.34.55.843 1 1.118 1s.222-.45-.118-1-.843-1-1.118-1-.222.45.118 1m226.5-.5c0 .275.225.5.5.5s.5-.225.5-.5-.225-.5-.5-.5-.5.225-.5.5m-149 2c0 .275.225.5.5.5s.5-.225.5-.5-.225-.5-.5-.5-.5.225-.5.5m62 0c0 .275.225.5.5.5s.5-.225.5-.5-.225-.5-.5-.5-.5.225-.5.5m-66 1c0 .275.225.5.5.5s.5-.225.5-.5-.225-.5-.5-.5-.5.225-.5.5m-5.667 1.167a.95.95 0 0 0 1.334 0c.366-.367.066-.667-.667-.667s-1.033.3-.667.667M769 490.5c0 .275.225.5.5.5s.5-.225.5-.5-.225-.5-.5-.5-.5.225-.5.5m16 1c0 .275.225.5.5.5s.5-.225.5-.5-.225-.5-.5-.5-.5.225-.5.5m-175 2c0 .275.225.5.5.5s.5-.225.5-.5-.225-.5-.5-.5-.5.225-.5.5m171 2c0 .275.225.5.5.5s.5-.225.5-.5-.225-.5-.5-.5-.5.225-.5.5m-93 1c0 .275.225.5.5.5s.5-.225.5-.5-.225-.5-.5-.5-.5.225-.5.5m50 1c0 .275.225.5.5.5s.5-.225.5-.5-.225-.5-.5-.5-.5.225-.5.5m-69 9c0 .275.225.5.5.5s.5-.225.5-.5-.225-.5-.5-.5-.5.225-.5.5m110 1c0 .275.225.5.5.5s.5-.225.5-.5-.225-.5-.5-.5-.5.225-.5.5m-61 3c0 .275.225.5.5.5s.5-.225.5-.5-.225-.5-.5-.5-.5.225-.5.5m-58 1c0 .275.225.5.5.5s.5-.225.5-.5-.225-.5-.5-.5-.5.225-.5.5m-5 3c0 .275.225.5.5.5s.5-.225.5-.5-.225-.5-.5-.5-.5.225-.5.5m-9 5c0 .275.225.5.5.5s.5-.225.5-.5-.225-.5-.5-.5-.5.225-.5.5m76 10c0 .275.225.5.5.5s.5-.225.5-.5-.225-.5-.5-.5-.5.225-.5.5m41 .5c0 .733.3 1.033.667.667a.95.95 0 0 0 0-1.334c-.367-.366-.667-.066-.667.667m11 4.5c0 .275.225.5.5.5s.5-.225.5-.5-.225-.5-.5-.5-.5.225-.5.5m-81 8c0 .275.225.5.5.5s.5-.225.5-.5-.225-.5-.5-.5-.5.225-.5.5m-15 6c0 .275.225.5.5.5s.5-.225.5-.5-.225-.5-.5-.5-.5.225-.5.5m-88 2c0 .275.225.5.5.5s.5-.225.5-.5-.225-.5-.5-.5-.5.225-.5.5m44 17c0 .275.225.5.5.5s.5-.225.5-.5-.225-.5-.5-.5-.5.225-.5.5m-44 19c0 .275.225.5.5.5s.5-.225.5-.5-.225-.5-.5-.5-.5.225-.5.5m-69 3c0 .275.225.5.5.5s.5-.225.5-.5-.225-.5-.5-.5-.5.225-.5.5m-14 8c0 .275.225.5.5.5s.5-.225.5-.5-.225-.5-.5-.5-.5.225-.5.5m54 1c0 .275.225.5.5.5s.5-.225.5-.5-.225-.5-.5-.5-.5.225-.5.5m-15 6c0 .275.225.5.5.5s.5-.225.5-.5-.225-.5-.5-.5-.5.225-.5.5m-53 1c0 .275.225.5.5.5s.5-.225.5-.5-.225-.5-.5-.5-.5.225-.5.5m-28 15c0 .275.225.5.5.5s.5-.225.5-.5-.225-.5-.5-.5-.5.225-.5.5m37 3c0 .275.225.5.5.5s.5-.225.5-.5-.225-.5-.5-.5-.5.225-.5.5m-51 5c0 .275.225.5.5.5s.5-.225.5-.5-.225-.5-.5-.5-.5.225-.5.5m-14 8c0 .275.225.5.5.5s.5-.225.5-.5-.225-.5-.5-.5-.5.225-.5.5m21 6c0 .275.225.5.5.5s.5-.225.5-.5-.225-.5-.5-.5-.5.225-.5.5m-38 3c0 .275.225.5.5.5s.5-.225.5-.5-.225-.5-.5-.5-.5.225-.5.5m23.333 3.167a.95.95 0 0 0 1.334 0c.366-.367.066-.667-.667-.667s-1.033.3-.667.667M414 649.5c0 .275.225.5.5.5s.5-.225.5-.5-.225-.5-.5-.5-.5.225-.5.5m-3 2c0 .275.225.5.5.5s.5-.225.5-.5-.225-.5-.5-.5-.5.225-.5.5m4 8c0 .275.225.5.5.5s.5-.225.5-.5-.225-.5-.5-.5-.5.225-.5.5" fill="#080404" fill-rule="evenodd"/></svg>