<svg version="1.2" xmlns="http://www.w3.org/2000/svg" viewBox="0 0 671 167" width="671" height="167"><path fill-rule="evenodd" d="M61.4 22.3h16.4q6 0 25.5 12.4h2.4q1.7 0 3.9-8.5h3.8q3.1 1.3 3.1 5.4-3.4 18.5-17.1 21.7h-.8q-1.2 0-8.5-11.6-10.5-3.8-17-3.8-21.7 0-27.9 16.2-1.6 5.1-1.6 7v7q.3 1.6 1.6 1.6h.8q5.8-5.2 12.4-6.3 13.5 3.1 17 3.1h.8q5.4-1.5 6.2-1.5h1.5q1.6.2 1.6 1.5-4.5 14-12.4 14 0 .7-3.9.7-1.2 0-13.2-3.1-6.2 1.2-6.2 6.3 0 9.8 15.5 38.7v2.4L63 127H36.7q-1.2 0-2.4-2.3 1.6-13.2 1.6-14.8V73.5Q34.3 43.9 32 27l2.3-1.6q6.6 1.6 8.5 1.6 3.8 0 18.6-4.7M105.2 74h1.9q7.9 0 15.4 7.4 7.4 10.3 7.4 17.3 0 19.8-22.8 27.7-1 .6-3 .6-14.5 0-20.4-14.8-1.8-5.2-1.8-7.4v-2.4q0-14.6 16.6-26.5 4.8-1.9 6.7-1.9M90.5 93.7v.6q0 8.1 9.8 17.3 4.9 2.9 10.5 3.7 9.9-1.4 9.9-8v-1.2q-7.6-20.3-22.2-20.3-8 1.1-8 7.9m85-20q3.9 1.3 3.9 2.5v.6q0 9.6-11.5 9.6-4.4 6-5.7 10.8 4 17.7 13.3 17.7 7 3.3 7 4.5v.6q-5.6 7-11.4 7-7.3 0-14-17.8h-1.3q-1.3.1-11.4 13.3-4.5 4.5-6.4 4.5-6.9-.5-6.9-1.9v-1.9q2.5-8.3 5-8.3l5.8.7q4.8 0 10.1-15.3-5.3-14.5-14-14.5-3.8-1.9-3.8-3.8 0-4.1 9-7.7h1.9q1.1 0 12 12.1l1.3.6h1.9q10.2-12.5 12.7-12.7 1.4 0 2.5-.6M204 49.5q9.8 1.7 9.8 4.3v.6q-2.7 8.7-6.8 8.7-3.8-.5-7.4-3.1h-2.4q-3.1 1.5-3.1 4.9v6.7q0 4.9 5 4.9h.5q4 0 10.5-2.4l1.3 1.9v.5q-.5 1.7-1 3.1 5.4-4.9 9.5-5.3 7.6 0 7.6 23.8v20.1q1.2 6.2 1.2 6.9-1.9 1.9-11.9 1.9h-2.5q-.9 0-1.9-1.9 1.9-4.3 1.9-6.9V90q0-2.9-5.6-6.9-3.3 5.2-9.1 5.2-4.9 0-4.9 11.7v13.5q0 6.7 2.5 10.4 0 3.1-5.5 3.1h-4.4q-1.6 0-3.6-1.2.6-7.2.6-10.5V93.2q-3.7-8.1-3.7-8.6 3.3-3.4 4.3-20.3 6.6-14.8 19.1-14.8m19.7 2.3q5.6 2 5.6 6.3 0 5.1-6.2 10.6h-2.5q-3.8-1.9-3.8-10.6 0-6.3 6.9-6.3M257.8 74q13 0 17.6 12.1v.5q0 5.1-27.1 18.4l-1.2 1.9q0 7.1 11.9 10h.7q7.3 0 13.8-10.7l1.3-.7h1.3q1.3.3 1.3 1.4v1.8q0 7.6-10.2 15.2-3.7 3.1-10.1 3.1-23.3-4-23.3-22.7V93.6Q238.2 76 248.3 76q0-1.1 9.5-2m-15.1 16.5q.6 10.6 5 10.6 10.7-5.4 15.8-11.3v-.6q-1.3-7.6-13.9-7.6-5.1 0-6.9 8.9m53.5-45.9h2q1 0 2 2v.6q-3.3 8-3.3 9.9 0 10.1.7 61.4 0 2 1.3 5.2-.9 3.3-4.6 3.3h-11.1q-1.7 0-2-2.6 2-5.9 2-7.9V62.9q0-2.3-2.6-5.2v-2.6q.5-2 15.6-10.5m52.5 2.6q.9 0 1.9 1.9v.6q-3.7 7.7-3.7 12v51.5l1.2 11.3q-2.4 1.8-5.6 1.8h-1.9q-2.8 0-6.3-4.9h-.6q-9.2 5.6-15.1 5.6h-1.3q-11.2 0-13.8-16.3v-6.3q0-13.1 12.5-25.7 5.2-3.9 10.7-4.4 4.2.6 8.2.6l1.3-1.9v-4.4q0-5.8-3.2-11.9 0-4 15.7-9.5M311 92.4v8.8q4.4 15.1 12 15.1h2.5q10.7 0 10.7-13.2V89.4q0-3.4-13.2-7h-2.5q-7 0-9.5 10m105.1-46.1h6.1q8.7 6.4 8.7 12.1v1.8q0 6-11.3 19v.9q9.9 15.6 13.8 15.6l.9-1.7q-.9-7.4-.9-12.1 0-4.4 7-7 6.1 2.1 6.1 10.4v.9q-2.7 11.3-2.7 14.8v6q0 4.7 9.6 9.6v.9q-3.4 6.6-8.7 9.5H443q-2 0-13-6.1l-14.8 6.1q-26.9-6.1-26.9-20 0-11.9 10.4-22.6v-1.6q-.9-18.5-.9-21.8 1.9-5 18.3-14.7m-3.5 10.4h-3.5l-.8 4.3q0 8.4 5.2 12.2h2.6q1.2 0 2.6-2.6v-1.8q0-7.2-6.1-12.1m-12.1 40.8q8.3 16.5 15.6 16.5h3.5q1.2 0 2.6-2.6v-.9q0-7.3-16.5-22.5h-.9q-3 0-4.3 9.5m133.7-75.2h2.5q21.7 5.8 26.4 5.8l7.4-.8q4.9 5.7 4.9 12.3-7.6 28.1-15.6 28.1-6.9 6.5-9.9 6.6-.9-1.6-.9-2.5 6.6-14.7 6.6-16.5v-.8q-9.3-13.2-33-13.2-17.6 0-22.2 14.8-1.6 3-1.6 6.6v9.1q0 22 26.3 37 15.5 3.3 18.2 3.3 13.1 0 24.7-13.2h.8q1.7.3 1.7 1.7v.8q0 10.7-22.3 22.3-9.7 3.3-15.7 3.3h-3.3q-27.2 0-40.3-31.3-3.3-7.7-3.3-14v-3.3q0-31.6 37-52.8 9-3.3 11.6-3.3M594.7 74h1.9q7.9 0 15.4 7.4 7.4 10.3 7.4 17.3 0 19.8-22.8 27.7-1 .6-3.1.6-14.4 0-20.3-14.8-1.9-5.2-1.9-7.4v-2.4q0-14.6 16.7-26.5 4.7-1.9 6.7-1.9M580 93.7v.6q0 8.1 9.8 17.3 4.8 2.9 10.5 3.7 9.9-1.4 9.9-8v-1.2q-7.6-20.3-22.2-20.3-8 1.1-8 7.9m51 17.2h2.9q5.6 2 5.6 6.4-2.6 9.7-10.3 9.7-2.8-2.9-2.8-5.6v-4.1q0-4.4 4.6-6.4" style="fill:#000"/></svg>