<svg viewBox="0 0 16 16" fill="none" xmlns="http://www.w3.org/2000/svg">
<g id="arrowUpDown">
<g id="Glyph">
<path d="M8.00001 2.41683L11.5913 6.00814C11.9822 6.39903 12.616 6.39903 13.0068 6.00814C13.3977 5.61726 13.3977 4.98351 13.0068 4.59262L8.70712 0.292893C8.31659 -0.0976311 7.68343 -0.0976311 7.29291 0.292893L2.99318 4.59262C2.60229 4.98351 2.60229 5.61726 2.99318 6.00814C3.38406 6.39903 4.01781 6.39903 4.4087 6.00814L8.00001 2.41683Z" fill="#30313D"/>
<path d="M13.0068 9.99186C12.616 9.60097 11.9822 9.60097 11.5913 9.99186L8.00001 13.5832L4.4087 9.99186C4.01781 9.60097 3.38406 9.60097 2.99318 9.99186C2.60229 10.3827 2.60229 11.0165 2.99318 11.4074L7.29291 15.7071C7.68343 16.0976 8.31659 16.0976 8.70712 15.7071L13.0068 11.4074C13.3977 11.0165 13.3977 10.3827 13.0068 9.99186Z" fill="#30313D"/>
</g>
</g>
</svg>
