<svg viewBox="0 0 16 16" fill="none" xmlns="http://www.w3.org/2000/svg">
<g id="coupon">
<path id="Glyph" fill-rule="evenodd" clip-rule="evenodd" d="M7.68496 0.588407L15.706 8.63427C16.098 9.02489 16.098 9.65821 15.706 10.0488L10.0273 15.707C9.63525 16.0977 8.99964 16.0977 8.6076 15.707L0.581052 7.65562C0.208877 7.28229 0 6.77744 0 6.25124V2.00048C0 0.895646 0.898888 0 2.00772 0H6.26601C6.79877 0 7.30951 0.211792 7.68496 0.588407ZM3.5 5C4.32843 5 5 4.32843 5 3.5C5 2.67157 4.32843 2 3.5 2C2.67157 2 2 2.67157 2 3.5C2 4.32843 2.67157 5 3.5 5Z" fill="#30313D"/>
</g>
</svg>
