<svg xmlns="http://www.w3.org/2000/svg" viewBox="0 0 32 32" id="DefaultPayment"><path fill="#5C666A" d="M0 7a2 2 0 0 1 2-2h28a2 2 0 0 1 2 2v18a2 2 0 0 1-2 2H2a2 2 0 0 1-2-2z"/><path fill="#545C5F" d="M16.5 27 28.25 5H30a2 2 0 0 1 2 2v18a2 2 0 0 1-2 2z"/><path fill="#D9DADB" fill-rule="evenodd" d="m9.02 22.04.03.01.01.02v.17l-.01.03h-.06l-.05-.02h-.32v1.17l.01.02.02.05-.02.03h-.29l-.01-.03v-.03l.03-.04v-1.16l-.02-.01h-.29l-.02.01q-.02.02-.06.02h-.01l-.03-.03v-.17l-.01.03-.02.02-.03.02-.01.02-.37.69v.56l.02.01q.02.02.02.05l-.02.03h-.27q-.05 0-.05-.03v-.03l.04-.03v-.57l-.36-.68-.02-.02-.02-.02q-.03-.02-.03-.05l.01-.03h.3v.01l.01.02v.03l.24.46.26-.46-.01-.03.01-.03h.26q.05 0 .05.03l.01-.03h.02zm.63 0q.12 0 .22.06l.18.16.12.24a1 1 0 0 1 .05.29 1 1 0 0 1-.05.28l-.12.24-.18.16a.4.4 0 0 1-.44 0l-.18-.16-.12-.24a1 1 0 0 1-.04-.28 1 1 0 0 1 .04-.3l.12-.23.18-.16a.4.4 0 0 1 .22-.05m-6.99 0a1 1 0 0 1 .32.07l.11.09.07.1.03.03.03.05v.03h-.03l-.02.01-.23.03h-.05l-.02-.03v-.05q.02-.02.01-.03-.04-.1-.2-.1a.3.3 0 0 0-.16.03.2.2 0 0 0-.09.11l-.03.09-.02.1-.01.1v.28l.05.19q.06.17.25.17.1 0 .17-.05l.05-.08.01-.05V23h-.13l-.08-.02-.02-.02-.01-.03v-.05q0-.03.03-.05l.04-.02h.34q.05 0 .08.02l.03.02v.56q0 .03-.03.05l-.04.02h-.18l-.07.02-.07.01-.12.01-.27-.05a.4.4 0 0 1-.18-.14l-.1-.23a1 1 0 0 1-.03-.49l.02-.08.01-.07.05-.14.06-.1a.4.4 0 0 1 .18-.13l.25-.05m8.06 0 .04.01q.02.01.01.03 0 .03-.02.05l-.01.02v.01l.51.74v-.75l-.02-.02q-.02-.02-.02-.05 0-.02.03-.03h.31l.01.03v.03l-.04.04v1.27l.02.01q.02.02.02.05l-.02.03h-.28q-.05 0-.05-.03v-.03l.04-.03v-.09l-.52-.73v.8q0 .02.02.03t.02.05l-.01.03h-.32l-.01-.03.01-.05.02-.01v-1.26l-.02-.03q-.02-.01-.02-.05 0-.02.02-.02l.02-.01h.02zm-5.77 0q.11 0 .2.04.1.03.18.08l.11.12.03.07.01.08v.7a.3.3 0 0 1-.04.15l-.11.12-.17.09-.1.02h-.69l-.02-.03q0-.03.02-.05l.02-.01v-1.26l-.02-.03q-.02-.02-.02-.05 0-.02.02-.02l.01-.01h.02zm1.13 0h.03l.3.01h.01l.02.03v.03l-.03.03v.02l.34 1.23.03.02.02.03v.06l-.02.01h-.24l-.05-.03v-.03l.01-.03v-.02l-.06-.2h-.39l-.05.2v.03q.02.02 0 .05v.02h-.3l-.01-.04q0-.04.02-.06l.04-.02.35-1.23-.02-.03q-.02-.01-.02-.05 0-.02.02-.03m-1.08.2h-.34v1.07H5a.2.2 0 0 0 .15-.05l.05-.06v-.82q0-.06-.06-.1a.2.2 0 0 0-.14-.04m4.65.01-.11.04-.1.12-.06.16a1 1 0 0 0 0 .41l.06.17q.05.07.1.1l.11.05q.06 0 .12-.04l.1-.11.05-.17a1 1 0 0 0 0-.4l-.06-.17-.1-.12zm-3.41.24.14.5h-.3zm14.42-5.25q.12 0 .21.1.06.05.08.13l.01.08v.24a.4.4 0 0 1-.06.17l-.04.05-.05.03-.2.14.2.13.09.08q.03.04.04.09l.02.04v.26q0 .13-.09.22l-.13.08h-.61a.3.3 0 0 1-.22-.08l-.07-.1-.01-.06v-.28l.01-.08.04-.1.04-.03.05-.04.21-.13-.21-.14-.09-.08-.04-.09-.02-.08v-.24q0-.13.09-.22l.13-.08h.09zm1.5 0q.13 0 .22.1l.08.13v.32a.4.4 0 0 1-.06.17l-.03.05-.05.03-.21.14.21.13q.06.04.08.08t.05.09v.04l.02.1v.16a.3.3 0 0 1-.1.22l-.13.08h-.6a.3.3 0 0 1-.22-.08l-.06-.1-.02-.06v-.28a.4.4 0 0 1 .06-.17l.03-.04.05-.04.21-.13-.2-.14-.1-.08-.03-.09-.01-.04-.01-.1v-.18q0-.13.08-.22a.3.3 0 0 1 .14-.08h.08zm4.54 0q.12 0 .21.1l.08.13.01.08v.24l-.02.08-.04.1-.04.04-.05.03-.2.14.2.13.09.08q.03.04.04.09l.02.08v.22a.3.3 0 0 1-.09.22l-.13.08h-.61a.3.3 0 0 1-.21-.08l-.07-.1-.01-.06v-.36l.05-.1.04-.03.05-.04.2-.13-.2-.14-.09-.08-.04-.09-.02-.08v-.24a.3.3 0 0 1 .22-.3h.08zm-22.31 0a.3.3 0 0 1 .22.09l.07.1.01.05.01.06v1.23a.3.3 0 0 1-.2.29l-.05.01-.06.01h-.51a.3.3 0 0 1-.22-.09l-.07-.1-.02-.06v-1.29l.02-.11a.3.3 0 0 1 .17-.17l.06-.02h.06zm20.79 0q.16 0 .24.08l.07.13v.63l-.02.03-.02.02v.06l.02.03.02.03v.54a.3.3 0 0 1-.08.21.3.3 0 0 1-.14.07l-.1.01h-.7l-.08-.03a.1.1 0 0 1-.03-.09q0-.06.02-.1t.07-.05l.04.01.02.02h.65l.07-.05.02-.08v-.34l-.02-.06-.04-.02-.08-.01h-.32a.1.1 0 0 1-.08-.04l-.03-.08q0-.04.03-.08l.03-.02.05-.01h.32l.08-.01.04-.03.01-.02v-.38l-.01-.08-.07-.04-.05-.02h-.6l-.02.03-.04.01q-.05 0-.07-.04l-.02-.11q0-.05.03-.09l.04-.02h.04zm4.54 0a.3.3 0 0 1 .22.09l.07.1.01.05.01.06v1.23l-.02.12a.3.3 0 0 1-.17.17l-.06.01-.06.01h-.51A.3.3 0 0 1 29 19l-.07-.1-.02-.06v-1.29l.02-.11a.3.3 0 0 1 .17-.17l.06-.02h.06zm-19.09 0q.05 0 .08.03.03.04.03.08l-.02.11q-.02.05-.06.05t-.05-.02-.02-.02h-.68l-.03.02-.01.01v.46l.01.03.05.02h.44l.15.02a.3.3 0 0 1 .2.18l.03.08v.5a.3.3 0 0 1-.07.21.3.3 0 0 1-.14.07l-.1.01h-.7l-.07-.04-.04-.08q0-.06.02-.1t.07-.05l.05.01.01.02h.64l.07-.05.02-.08v-.35l-.04-.06-.08-.05h-.06l-.07-.01h-.53l-.08-.03-.02-.04v-.81q0-.05.02-.09l.04-.02.04-.01zm4.34 0a.3.3 0 0 1 .22.09l.07.1.02.05v1.29a.3.3 0 0 1-.19.29l-.06.01-.06.01h-.5a.3.3 0 0 1-.23-.09l-.07-.1-.01-.06-.01-.06v-1.23q0-.06.02-.11a.3.3 0 0 1 .17-.17l.06-.02h.06zm-1.3 0q.04 0 .07.03l.03.04v.47l-.03.25a.3.3 0 0 1-.1.13l-.16.06h-.1l-.27.01h-.07l-.12.04q-.04.02-.05.05v.52h.78a.1.1 0 0 1 .08.04l.03.08q0 .05-.03.08l-.03.03h-.95l-.08-.02-.02-.04v-.76l.06-.1.1-.09.07-.02.09-.02.37-.02.09-.02.08-.06.04-.08v-.29q0-.03-.02-.05l-.04-.02h-.7l-.01.02-.05.01q-.05 0-.07-.04l-.02-.11q0-.05.04-.09l.03-.02h.04zm-6.27 0q.05 0 .09.04l.03.03v.7l.02.01h.08q.04 0 .08.03.03.04.03.09t-.03.08l-.04.02-.04.01h-.08l-.01.01v.7q0 .05-.04.08a.1.1 0 0 1-.09.04.1.1 0 0 1-.08-.04l-.02-.03-.01-.05v-.7H6.7l-.07-.04-.03-.04v-.82q0-.05.03-.08l.07-.04q.05 0 .1.04l.02.03.01.05v.65l.02.01h.43l.01-.01v-.65q0-.05.03-.08a.1.1 0 0 1 .08-.04m-4.53 0q.04 0 .08.03l.03.04.01.05v.65l.01.01h.08q.05 0 .08.03.03.04.03.09t-.03.08l-.04.02-.04.01H3v.01l-.01.7q0 .05-.04.08l-.08.04a.1.1 0 0 1-.08-.04l-.03-.03v-.75h-.01l-.01-.01h-.57l-.08-.03-.02-.04-.01-.05v-.77l.03-.09.08-.03q.04 0 .08.03l.04.04v.7l.02.01h.44v-.66q0-.05.04-.09zm25.33 0q.04 0 .08.03l.03.04.01.05v.65l.01.01h.08q.05 0 .08.03.03.04.03.08t-.03.09l-.04.02-.04.01h-.08l-.01.01v.7q0 .05-.04.08l-.08.04a.1.1 0 0 1-.08-.04l-.03-.03v-.75h-.01l-.01-.01h-.57l-.08-.03-.02-.04-.01-.05v-.77q0-.05.03-.09l.08-.03q.04 0 .08.03l.03.04.01.05v.65l.02.01h.43l.01-.01v-.65q0-.05.04-.09zm-22.09 0q.05 0 .08.03l.02.04.01.04v.43l-.04.24a.3.3 0 0 1-.1.14l-.16.05-.1.01-.27.01H5.5l-.13.04q-.04.02-.04.05l-.01.04v.48h.79a.1.1 0 0 1 .08.04l.03.08q0 .05-.03.08l-.04.03h-.94l-.08-.03-.03-.03v-.65l.01-.12.05-.1.1-.08.07-.03h.1l.36-.04.1-.01.08-.06.03-.08v-.34l-.05-.02-.05-.01h-.64l-.02.02q0 .02-.05.02-.04 0-.06-.05l-.02-.1q0-.05.03-.09l.03-.02.05-.01zm13.23 0q.04 0 .07.03l.03.04v.47l-.03.24a.3.3 0 0 1-.1.14l-.16.05-.1.01-.27.01h-.07l-.12.04q-.04.02-.05.05v.52h.79l.07.04.03.08q0 .05-.03.08l-.03.03h-.94l-.08-.03-.03-.03v-.77l.06-.1.1-.08.07-.03h.1l.36-.04.09-.01.08-.06.04-.08v-.29q0-.03-.02-.05l-.04-.02-.06-.01h-.64l-.01.02q-.01.02-.05.02-.05 0-.07-.05l-.01-.1q0-.05.03-.09l.03-.02.04-.01zm-7.65 0q.05 0 .08.04l.03.03.01.05v1.48h.34q.05 0 .08.04.04.04.04.08 0 .05-.04.08l-.03.03h-.96l-.08-.03-.03-.08q0-.04.03-.08l.04-.02.04-.01h.32l.01-.02v-1.29l-.05-.04-.01-.05q0-.04.03-.08l.05-.07.04-.04zm5.67 0q.05 0 .09.04l.02.03.01.05v1.48h.35q.04 0 .08.04.03.04.03.08 0 .05-.03.08l-.04.03h-.96l-.08-.03-.03-.08q0-.04.03-.08l.04-.02.04-.01h.33v-1.31l-.05-.04v-.05l.02-.08.05-.07.04-.04zm3.07 1.1h-.06l-.03.01-.17.12-.08.06v.02l-.02.07v.17l.02.04.02.01h.54l.04-.01v-.02l.02-.04v-.22l-.02-.02-.03-.03-.13-.1zm1.51 0h-.06l-.03.01-.17.12-.06.04-.02.02v.02l-.01.03v.23l.02.02.03.02h.52l.03-.02.02-.02v-.26l-.01-.02-.03-.03-.13-.1zm4.53 0h-.05l-.03.01-.08.06-.13.09q-.04.02-.04.05v.24l.01.04.02.01h.53l.04-.01.02-.04v-.24l-.02-.02-.03-.03-.13-.1zM15 17.5h-.52l-.03.01-.02.02v1.28l.02.03.03.02h.47l.06-.02.01-.02v-1.3zm-10.63 0h-.5l-.02.03v1.28l.01.03.04.02h.47q.03 0 .05-.02l.02-.02v-1.27l-.01-.03-.01-.01zm25.38.02-.03-.01h-.5l-.03.01-.01.02v1.28l.01.03.04.02h.47l.05-.02.02-.02v-1.29zm-9.1-.01h-.52l-.03.03-.01.02v.27l.01.02.03.03.13.1.1.05h.09l.18-.12.06-.04.02-.04v-.03l.01-.22v-.03l-.03-.03zm1.5 0h-.5l-.04.03v.02l-.01.02v.25l.02.02.02.03.14.1.1.05h.08l.18-.12.05-.04.03-.04v-.28l-.02-.03zm4.54 0h-.52l-.02.03-.01.02v.29l.08.06.17.12h.11l.17-.12.06-.04.02-.04v-.27l-.02-.04zM19.66 9.8h.3a.4.4 0 0 0-.05-.2l-.12-.13-.17-.08a.7.7 0 0 0-.44.02.5.5 0 0 0-.3.33 1 1 0 0 0 0 .48.5.5 0 0 0 .3.3q.11.05.24.05.23 0 .37-.12a.5.5 0 0 0 .18-.35h-.3a.3.3 0 0 1-.08.17q-.06.07-.17.07a.2.2 0 0 1-.2-.12l-.05-.12v-.26l.04-.12.09-.08.12-.04q.2 0 .24.2m.49-.4v1.14h.31V10l.02-.14.05-.12.1-.08.14-.02h.12v-.29h-.07a.4.4 0 0 0-.22.06.4.4 0 0 0-.15.18v-.22zm1.59.44a.4.4 0 0 0-.08-.18q-.06-.06-.17-.06l-.13.03a.2.2 0 0 0-.12.14l-.01.07zm-.51.2q0 .16.08.22.07.07.2.07a.3.3 0 0 0 .16-.04q.07-.05.09-.1h.27a.5.5 0 0 1-.2.29.6.6 0 0 1-.33.09l-.24-.04a.5.5 0 0 1-.3-.32l-.05-.24q0-.13.05-.24a.6.6 0 0 1 .54-.37q.15 0 .25.06l.18.15q.07.1.1.22l.02.25zm1.82-.08-.01-.13-.05-.12-.08-.08-.13-.03-.13.03-.08.08-.05.12v.27l.05.12.09.08.12.03.13-.03.09-.08.04-.12zm0 .43a.3.3 0 0 1-.14.14l-.2.04a.5.5 0 0 1-.4-.19l-.09-.2a1 1 0 0 1 0-.45l.1-.19a.5.5 0 0 1 .38-.18l.2.05q.09.04.14.12v-.57h.32v1.58h-.3zm.87-1.17v-.26h-.32v.26zm-.32.17v1.15h.32V9.38zm.96 0v-.34h-.31v.34h-.2v.21h.2v.68q0 .09.03.14t.08.08.11.04l.14.01h.1l.08-.01v-.25l-.1.01q-.07 0-.1-.02t-.03-.1V9.6h.23v-.2zm1.78.4h.3a.4.4 0 0 0-.05-.18.4.4 0 0 0-.12-.14l-.17-.08a.7.7 0 0 0-.44.02.5.5 0 0 0-.3.33 1 1 0 0 0 0 .48.5.5 0 0 0 .3.3q.11.05.24.05.23 0 .38-.12a.5.5 0 0 0 .17-.35h-.3a.3.3 0 0 1-.08.17q-.06.06-.17.06a.2.2 0 0 1-.2-.12l-.05-.11v-.26l.05-.12.08-.09a.2.2 0 0 1 .13-.03q.2 0 .23.2m.48-.05a.4.4 0 0 1 .05-.19l.13-.12.17-.06.19-.02.17.01q.1.01.16.05a.3.3 0 0 1 .12.1.3.3 0 0 1 .05.17v.74l.04.1h-.32l-.02-.1a.4.4 0 0 1-.18.1l-.2.04-.16-.02-.12-.06-.09-.11-.03-.15q0-.1.04-.16l.09-.1.12-.06.14-.03.14-.02.12-.02.09-.04q.03-.02.02-.07l-.01-.08-.05-.05-.06-.02h-.08a.2.2 0 0 0-.15.03q-.05.04-.06.14zm.72.23-.05.03-.13.02-.08.01-.07.02-.06.03-.04.05-.01.07.01.07.04.05.07.02.07.01q.1 0 .14-.03l.08-.08.03-.08v-.07zm.56-.59v1.15h.32V10l.01-.14.05-.12.1-.08.15-.02h.11v-.29h-.07a.4.4 0 0 0-.22.06.4.4 0 0 0-.15.18v-.22zm1.64.57-.02-.13-.04-.12-.08-.08-.13-.03-.13.03-.09.08-.05.12v.27l.05.12.1.08.12.03.13-.03.08-.08.04-.12zm0 .43a.3.3 0 0 1-.15.14l-.2.04a.5.5 0 0 1-.39-.19l-.1-.2a1 1 0 0 1 0-.45l.1-.19a.5.5 0 0 1 .38-.18l.2.04q.09.05.14.13v-.57h.32v1.58h-.3z" clip-rule="evenodd"/><rect width="3.65" height="2.91" x="2.07" y="11.71" fill="#BF6C30" rx=".21"/><path fill="#F2DA78" fill-rule="evenodd" d="M2.76 13.65h.97v.33h-.97zm2.26 0v.33h-.96v-.33zm0-.65v.32H2.76V13zm0-.32h-.96v-.33h.96zm-1.3-.33v.33h-.96v-.33z" clip-rule="evenodd"/><path fill="#666" fill-opacity=".6" fill-rule="evenodd" d="M30 5.75H2C1.31 5.75.75 6.31.75 7v18c0 .69.56 1.25 1.25 1.25h28c.69 0 1.25-.56 1.25-1.25V7c0-.69-.56-1.25-1.25-1.25M2 5a2 2 0 0 0-2 2v18a2 2 0 0 0 2 2h28a2 2 0 0 0 2-2V7a2 2 0 0 0-2-2z" clip-rule="evenodd"/></svg>