<svg version="1.1" xmlns="http://www.w3.org/2000/svg" xmlns:xlink="http://www.w3.org/1999/xlink" viewBox="0 0 25.1465 18.8965">  <path d="M11.3477 16.2988C11.3477 17.0117 10.791 17.5684 10.0781 17.5684C9.375 17.5684 8.80859 17.0117 8.80859 16.2988C8.80859 15.5957 9.375 15.0293 10.0781 15.0293C10.791 15.0293 11.3477 15.5957 11.3477 16.2988ZM18.5938 16.2988C18.5938 17.0117 18.0273 17.5684 17.3242 17.5684C16.6113 17.5684 16.0449 17.0117 16.0449 16.2988C16.0449 15.5957 16.6113 15.0293 17.3242 15.0293C18.0273 15.0293 18.5938 15.5957 18.5938 16.2988ZM18.1505 9.78516C18.7422 10.0313 19.3903 10.166 20.0684 10.166C20.1025 10.166 20.1365 10.1657 20.1695 10.1608C19.8525 10.7492 19.3127 11.0938 18.5156 11.0938L8.90465 11.0937L9.00391 11.7773C9.0625 12.207 9.32617 12.5098 9.72656 12.5098L18.4473 12.5098C18.7891 12.5098 19.082 12.793 19.082 13.1738C19.082 13.5449 18.7891 13.8281 18.4473 13.8281L9.59961 13.8281C8.41797 13.8281 7.80273 13.0957 7.62695 11.9434L6.43555 3.73047L3.94531 3.73047C3.60352 3.73047 3.30078 3.42773 3.30078 3.07617C3.30078 2.71484 3.60352 2.42188 3.94531 2.42188L6.57227 2.42188C7.46094 2.42188 7.69531 2.75391 7.79297 3.4375L7.91208 4.25781L15.0649 4.25781C15.0138 4.52691 14.9902 4.80484 14.9902 5.08789C14.9902 5.25266 14.9982 5.41566 15.0151 5.57617L8.1035 5.57617L8.71464 9.78516Z" fill="black" fill-opacity="0.85"/>   <path d="M20.0684 9.02344C22.1973 9.02344 24.0039 7.23633 24.0039 5.08789C24.0039 2.91992 22.2266 1.14258 20.0684 1.14258C17.9102 1.14258 16.1328 2.92969 16.1328 5.08789C16.1328 7.25586 17.9102 9.02344 20.0684 9.02344Z" fill="#ff9500"/>   <path d="M20 7.60742C19.6777 7.60742 19.4043 7.33398 19.4043 7.01172C19.4043 6.67969 19.6777 6.41602 20 6.41602C20.3418 6.41602 20.6055 6.67969 20.5957 7.01172C20.5957 7.33398 20.3418 7.60742 20 7.60742ZM20 6.07422C19.7266 6.07422 19.5605 5.9082 19.5605 5.63477C19.5605 5.625 19.5605 5.61523 19.5605 5.61523C19.5605 5.10742 19.8438 4.86328 20.1758 4.62891C20.5859 4.3457 20.8008 4.19922 20.8008 3.86719C20.8008 3.56445 20.5566 3.35938 20.1758 3.35938C19.8438 3.35938 19.6484 3.49609 19.4727 3.67188C19.3164 3.82812 19.209 3.97461 18.9844 3.97461C18.7305 3.97461 18.5547 3.79883 18.5547 3.55469C18.5547 2.92969 19.3652 2.51953 20.1758 2.51953C21.1426 2.51953 21.7773 3.05664 21.7773 3.82812C21.7773 4.43359 21.3965 4.69727 20.957 5.01953C20.6543 5.23438 20.4883 5.37109 20.459 5.68359C20.4297 5.92773 20.293 6.07422 20 6.07422Z" fill="white"/> </svg>