<svg version="1.2" xmlns="http://www.w3.org/2000/svg" viewBox="0 0 138 138"><path fill-rule="evenodd" d="M138 69c0 38.1-30.9 69-69 69S0 107.1 0 69 30.9 0 69 0s69 30.9 69 69" style="fill:#e8e8e8"/><path fill-rule="evenodd" d="M38 112.6c-9.2 0-16.6-7.4-16.6-16.6V70.9c0-9.1 7.4-16.6 16.6-16.6h62c9.2 0 16.6 7.5 16.6 16.6V96c0 9.2-7.4 16.6-16.6 16.6z" style="fill:#d6d6d6"/><path d="M120.2 31v70.2H18.4V31zm-45.7 84.4v5.4c0 .8-.6 1.5-1.5 1.5h-7.5c-.8 0-1.5-.7-1.5-1.5v-5.4c-13 .6-22.8 3.5-22.8 6.9 0 3.9 12.6 7 28.1 7s28.1-3.1 28.1-7c0-3.4-9.9-6.3-22.9-6.9" style="fill:#a6b0b8"/><path d="M73 122.3h-7.5c-.8 0-1.5-.7-1.5-1.5v-19.6h10.5v19.6c0 .8-.6 1.5-1.5 1.5" style="fill:#889096"/><path d="M120.2 38v56.2H18.4V38z" style="fill:#2d344e"/><path d="M25.4 53.8c.4 0 .9-.2 1.2-.5l7.1-7c.6-.7.6-1.8 0-2.5-.7-.7-1.8-.7-2.5 0l-7 7c-.7.7-.7 1.8 0 2.5.3.3.7.5 1.2.5m0 8.8c.4 0 .9-.2 1.2-.5l3.5-3.5c.7-.7.7-1.8 0-2.5-.6-.7-1.7-.7-2.4 0l-3.5 3.5c-.7.7-.7 1.8 0 2.5.3.3.7.5 1.2.5m5.8-10c-.3.3-.5.8-.5 1.2 0 .5.2.9.5 1.3.3.3.7.5 1.2.5s.9-.2 1.3-.5c.3-.4.5-.8.5-1.3 0-.4-.2-.9-.5-1.2-.7-.7-1.9-.7-2.5 0m3.5-1c.3.3.8.5 1.2.5.5 0 .9-.2 1.3-.5l5.2-5.3c.7-.7.7-1.8 0-2.5-.6-.7-1.8-.7-2.4 0l-5.3 5.3c-.7.7-.7 1.8 0 2.5m5.3 1L24.2 68.4c-.7.7-.7 1.8 0 2.5.3.3.7.5 1.2.5.4 0 .9-.2 1.2-.5l15.8-15.8c.7-.7.7-1.8 0-2.5-.6-.7-1.8-.7-2.4 0m3.5-3.5c-.4.3-.5.8-.5 1.2 0 .5.1.9.5 1.3.3.3.8.5 1.2.5.5 0 .9-.2 1.3-.5.3-.4.5-.8.5-1.3s-.2-.9-.5-1.2c-.7-.7-1.9-.7-2.5 0m7.7-5.3c-.7-.7-1.8-.7-2.5 0L47 45.6c-.7.6-.7 1.8 0 2.4.3.4.8.6 1.2.6.5 0 .9-.2 1.3-.6l1.7-1.7c.7-.7.7-1.8 0-2.5" style="fill:#e0e0e0"/><path fill-rule="evenodd" d="m83.1 10.5-.3.3-.3-.3c-.6-.7-1.3-1.3-2.2-1.5-1.4-.3-2.7.3-3.5 1.6-.5.9-.6 1.8-.5 2.7.2 1 .8 2 1.5 2.7.5.5 5 4.8 5 4.8 1.4-1.3 4.5-4.3 5-4.8.6-.7 1.3-1.7 1.4-2.7.1-.9.1-1.8-.4-2.7-.8-1.3-2.1-1.9-3.6-1.6-.9.2-1.6.8-2.1 1.5m22.3 13.9c-1.1-1.9-3.1-2.8-5.2-2.4-1.3.4-2.4 1.1-3.2 2.1l-.4.5-.4-.5c-.8-1-1.9-1.7-3.2-2.1-2.1-.4-4.1.5-5.2 2.4-.8 1.2-.9 2.5-.7 3.7.2 1.4 1.1 2.9 2.1 3.9.8.8 7.4 6.9 7.4 6.9 2.1-1.9 6.6-6.1 7.4-6.9 1-1 1.9-2.5 2.1-3.9.2-1.2.1-2.5-.7-3.7M96.3 47c-1.5-2.3-3.8-3.4-6.4-2.9-1.6.4-2.8 1.3-3.8 2.6l-.5.7-.5-.7c-1-1.3-2.3-2.2-3.8-2.6-2.6-.5-4.9.6-6.4 2.9-.9 1.6-1 3.2-.8 4.8.3 1.8 1.4 3.7 2.6 4.9.9 1 8.9 8.7 8.9 8.7 2.5-2.4 8-7.7 8.9-8.7 1.2-1.2 2.3-3.1 2.6-4.9.2-1.6.1-3.2-.8-4.8" style="fill:#4164df"/></svg>