<svg viewBox="0 0 16 16" fill="none" xmlns="http://www.w3.org/2000/svg">
<g id="guide">
<path id="Glyph" fill-rule="evenodd" clip-rule="evenodd" d="M11.4286 0L14.8571 0C15.4286 0 16 0.5 16 1V14C16 14.5 15.4286 15 14.8571 15H9.73244C9.38663 15.5978 8.74028 16 8 16C7.25972 16 6.61337 15.5978 6.26756 15H1.14286C0.571429 15 0 14.5 0 14V1C0 0.5 0.571429 0 1.14286 0L4.57143 0C5.46072 0 6.35002 0.403662 7 1.00158V13C7 13.5523 7.44772 14 8 14C8.55229 14 9 13.5523 9 13V1.00158C9.64998 0.403662 10.5393 0 11.4286 0Z" fill="#30313D"/>
</g>
</svg>
