<svg xmlns="http://www.w3.org/2000/svg" xmlns:xlink="http://www.w3.org/1999/xlink" viewBox="0 0 26 26"><defs><linearGradient id="b" x1="992.183" x2="1019.298" y1="516.081" y2="545.959" gradientTransform="translate(-772.463 625.151) scale(.78112)" gradientUnits="userSpaceOnUse" xlink:href="#a"/><linearGradient id="a"><stop offset="0" stop-color="#ff1679"/><stop offset="1" stop-color="#ff770b"/></linearGradient></defs><g transform="translate(-1.03 -1096.225) scale(1.06642)"><rect width="24.381" height="24.381" x=".965" y="1027.95" fill="url(#b)" rx="5.152" ry="5.152"/><path style="line-height:normal;text-indent:0;text-align:start;text-decoration-line:none;text-decoration-style:solid;text-decoration-color:#000;text-transform:none;block-progression:tb;isolation:auto;mix-blend-mode:normal" fill="#fff" d="M10.34 1034.518c-.953-.05-1.909.268-2.612.973-1.408 1.41-1.26 3.776.245 5.284l.482.481 4.372 4.376a.469.469 0 0 0 .66 0l4.37-4.376.482-.481c1.506-1.508 1.652-3.875.244-5.284-1.408-1.41-3.77-1.26-5.275.247l-.152.152-.152-.152c-.752-.753-1.711-1.17-2.665-1.22zm5.671.933c.713-.04 1.405.196 1.91.703 1.013 1.013.942 2.767-.243 3.954l-.485.485-4.037 4.04-4.036-4.04-.484-.485c-1.185-1.187-1.256-2.94-.243-3.954.506-.507 1.182-.74 1.897-.702.714.038 1.457.352 2.05.945l.487.486a.469.469 0 0 0 .663 0l.483-.487c.593-.594 1.326-.908 2.038-.947z" color="#000" font-family="sans-serif" font-weight="400" overflow="visible"/></g></svg>