<svg width="16" height="16" viewBox="0 0 16 16" fill="none" xmlns="http://www.w3.org/2000/svg">
<g id="info">
<path id="Glyph" fill-rule="evenodd" clip-rule="evenodd" d="M9 8C9 7.44772 8.55229 7 8 7H5.5C4.94772 7 4.5 7.44772 4.5 8C4.5 8.55229 4.94772 9 5.5 9H7V13C7 13.5523 7.44772 14 8 14C8.55229 14 9 13.5523 9 13V8ZM4 0H12C14.2091 0 16 1.79086 16 4V12C16 14.2091 14.2091 16 12 16H4C1.79086 16 0 14.2091 0 12V4C0 1.79086 1.79086 0 4 0ZM8 5.5C8.82843 5.5 9.5 4.82843 9.5 4C9.5 3.17157 8.82843 2.5 8 2.5C7.17157 2.5 6.5 3.17157 6.5 4C6.5 4.82843 7.17157 5.5 8 5.5Z" fill="#30313D"/>
</g>
</svg>
