<svg viewBox="0 0 16 16" fill="none" xmlns="http://www.w3.org/2000/svg">
    <path d="M10.5 3.5C10.5 3.23478 10.3946 2.98043 10.2071 2.79289C10.0196 2.60536 9.76522 2.5 9.5 2.5H6.5C6.23478 2.5 5.98043 2.60536 5.79289 2.79289C5.60536 2.98043 5.5 3.23478 5.5 3.5V4H4V3.5C4 2.83696 4.26339 2.20107 4.73223 1.73223C5.20107 1.26339 5.83696 1 6.5 1H9.5C9.8283 1 10.1534 1.06466 10.4567 1.1903C10.76 1.31594 11.0356 1.50009 11.2678 1.73223C11.4999 1.96438 11.6841 2.23998 11.8097 2.54329C11.9353 2.84661 12 3.1717 12 3.5V4H14.5C15.33 4 16 4.67 16 5.5V13.5C16 14.33 15.33 15 14.5 15H1.5C1.10218 15 0.720644 14.842 0.43934 14.5607C0.158035 14.2794 0 13.8978 0 13.5L0 5.5C0 4.67 0.67 4 1.5 4H10.5V3.5Z" fill=""></path>
  </svg>