<svg viewBox="0 0 16 16" fill="none" xmlns="http://www.w3.org/2000/svg">
<path id="Glyph" fill-rule="evenodd" clip-rule="evenodd" d="M2 3C2 2.44772 1.55228 2 1 2C0.447715 2 0 2.44772 0 3V13C0 13.5523 0.447715 14 1 14C1.55228 14 2 13.5523 2 13V3ZM15.7071 7.29289L11.4074 2.99316C11.0165 2.60228 10.3827 2.60228 9.99186 2.99316C9.60097 3.38405 9.60097 4.0178 9.99186 4.40869L12.5832 7H6C5.44772 7 5 7.44772 5 8C5 8.55229 5.44772 9 6 9H12.5832L9.99186 11.5913C9.60097 11.9822 9.60097 12.616 9.99186 13.0068C10.3827 13.3977 11.0165 13.3977 11.4074 13.0068L15.7071 8.70711C16.0976 8.31658 16.0976 7.68342 15.7071 7.29289Z" fill="#30313D"/>
</svg>
