<svg xmlns="http://www.w3.org/2000/svg" version="1.2" viewBox="0 0 32 32"><style>.s1{fill:#4164df}</style><path id="Layer" fill-rule="evenodd" d="M21.5 2.7c5.1 0 9.2 4.1 9.2 9.1v1.7q-.1.4-.4.6-.3.3-.6.3-.4 0-.7-.3-.3-.2-.3-.6v-1.7q0-1.4-.6-2.7-.5-1.3-1.5-2.3-1-1-2.4-1.6-1.3-.5-2.7-.5h-11q-1.4 0-2.7.5-1.3.5-2.3 1.5-1 1-1.5 2.2-.6 1.3-.7 2.7v1.9q0 .4-.3.7-.3.3-.7.3-.4 0-.7-.3-.3-.3-.3-.7v-1.7c0-1.2.3-2.4.7-3.5a10 10 0 0 1 2-2.9c.9-.9 1.9-1.6 3-2 1.1-.5 2.3-.7 3.5-.7z" style="fill:#d6d6d6"/><path fill-rule="evenodd" d="m5.7 29.7-.8-.2-.6-.4q-.3-.3-.4-.7-.2-.3-.2-.7l-.4-12h25.4l-.4 12q0 .4-.2.7-.1.4-.4.7l-.6.4-.8.2z" class="s1"/><path fill-rule="evenodd" d="m28.7 15.7-.1 1.6H3.4l-.1-1.6z" style="opacity:.3;fill:#333"/><path fill-rule="evenodd" d="M2.3 15.7h27.4v-4H2.3zM116 101.5c-6.9.7-17 2-22.5 3A488.4 488.4 0 0 0 42 117.1c-5.2 1.6-10.1 3.3-10.7 3.7-.7.4-4.2 15-7.8 32.7-3.6 17.6-10.4 52-15.1 76.5a706.9 706.9 0 0 0-7.7 44.8c.4.1 17.9 9.7 38.8 21.2 32.4 17.9 38.1 20.7 38.7 19.2.4-.9 4.1-18.8 8.2-39.7A14139.6 14139.6 0 0 0 108.5 161c.2-.8 1.7-2.1 3.2-2.7a109 109 0 0 1 32.1-5.3c5 0 11.6.5 14.4 1.1 2.9.6 7.3 2.2 9.8 3.4a28.3 28.3 0 0 1 14 16.1 56 56 0 0 1 1.4 13.9 358 358 0 0 1-6.8 44.5l-15.1 79.8a967.1 967.1 0 0 0-8.1 45c.2.4 9.3 5.7 20.2 11.9a2835 2835 0 0 0 57.1 31l19.4-98.7 19.2-98.5.1-35c-6.4-19.6-8.8-24.8-11.8-29a84 84 0 0 0-36.1-27.7 150 150 0 0 0-36.3-9.2 239 239 0 0 0-33.9-1.5c-12.6.1-28.4.7-35.3 1.4z" class="s1"/><path id="Color Fill 1" fill-rule="evenodd" d="m18.8 18.2-.1.3-.2.2-.2.3-.2.3-.4.2-.4.2-.2.1v.1h.1l.1.1.3.1.3.2.3.2.3.3.2.3.1.4.1.2h.1l.1-.2.1-.3.3-.4.3-.3.3-.3.5-.2.2-.2h-.1l-.3-.2-.4-.2-.3-.3-.3-.4-.2-.3-.2-.3V18l-.2.2zm-4.1 2.1-.6.1-.6.1-.6.2-.2.1-.2.7-.3 1.8-.2 1 .9.5.9.4.2-.9.3-1.7.2-.9.1-.1h.2l.5-.1h.3l.2.1.2.2.2.2v.3l-.2 1-.3 1.9-.2 1 .5.3.9.5.4.2.4-2.3.5-2.2v-.9l-.3-.6-.2-.3-.3-.2-.3-.2-.4-.1-.5-.1h-1.5z" style="fill:#fff"/></svg>