<svg xmlns="http://www.w3.org/2000/svg" viewBox="40 10 430 490"><path d="M160 56.054c-51.425 22.025-95.075 40.851-97 41.833-1.925.983-4.512 3.277-5.75 5.098L55 106.296v87.132c0 72.284.262 89.245 1.535 99.531C65.003 361.359 101.449 419.6 160 458.296c22.49 14.863 56.102 28.886 84.25 35.148l11.75 2.614 11.75-2.598c103.298-22.84 177.249-102.873 188.195-203.671.657-6.045 1.055-42.395 1.055-96.299 0-92.091.133-89.408-4.648-93.631-2.731-2.412-193.464-83.86-196.373-83.856-1.363.002-44.554 18.025-95.979 40.051m12.5 27.019c-64.015 27.374-82.615 35.724-84.803 38.071l-2.803 3.006.395 82.175c.437 90.636.164 86.385 7.187 112.193 19.639 72.168 80.801 129.903 154.032 145.4l9.992 2.115 13.5-3.386c75.29-18.881 132.783-76.209 150.921-150.488 5.439-22.275 5.579-25.041 5.579-110.495v-78.837l-2.609-2.244c-2.592-2.229-165.505-72.587-168.058-72.579-.733.002-38.233 15.783-83.333 35.069m71 74.026c-44.656 5.946-80.104 40.749-86.574 84.996-1.61 11.011-.653 29.142 2.079 39.405 12.638 47.457 58.04 79.373 105.924 74.459 17.143-1.759 34.503-7.968 47.737-17.073 7.732-5.32 19.75-17.403 25.312-25.448 20.714-29.964 23.532-69.483 7.269-101.938-10.574-21.1-32.235-40.603-53.741-48.384-15.323-5.545-33.985-7.884-48.006-6.017m53.5 56.005c-1.375.538-14.535 12.992-29.245 27.675l-26.746 26.698-11.254-11.13c-12.48-12.341-14.336-13.602-19.895-13.526-6.655.092-12.375 5.046-12.944 11.211-.693 7.528-.613 7.644 18.333 26.691 19.955 20.062 22.319 21.622 29.501 19.47 5.476-1.641 68.601-65.02 70.037-70.319 3.039-11.211-7.233-20.896-17.787-16.77" fill="#c0caff" fill-rule="evenodd"/><path d="M172.5 83.073c-64.015 27.374-82.615 35.724-84.803 38.071l-2.803 3.006.395 82.175c.437 90.636.164 86.385 7.187 112.193 19.639 72.168 80.801 129.903 154.032 145.4l9.992 2.115 13.5-3.386c75.29-18.881 132.783-76.209 150.921-150.488 5.439-22.275 5.579-25.041 5.579-110.495v-78.837l-2.609-2.244c-2.592-2.229-165.505-72.587-168.058-72.579-.733.002-38.233 15.783-83.333 35.069m71 74.026c-44.656 5.946-80.104 40.749-86.574 84.996-1.61 11.011-.653 29.142 2.079 39.405 12.638 47.457 58.04 79.373 105.924 74.459 17.143-1.759 34.503-7.968 47.737-17.073 7.732-5.32 19.75-17.403 25.312-25.448 20.714-29.964 23.532-69.483 7.269-101.938-10.574-21.1-32.235-40.603-53.741-48.384-15.323-5.545-33.985-7.884-48.006-6.017m53.5 56.005c-1.375.538-14.535 12.992-29.245 27.675l-26.746 26.698-11.254-11.13c-12.48-12.341-14.336-13.602-19.895-13.526-6.655.092-12.375 5.046-12.944 11.211-.693 7.528-.613 7.644 18.333 26.691 19.955 20.062 22.319 21.622 29.501 19.47 5.476-1.641 68.601-65.02 70.037-70.319 3.039-11.211-7.233-20.896-17.787-16.77" fill="#4164df" fill-rule="evenodd"/></svg>