<svg xmlns="http://www.w3.org/2000/svg" viewBox="0 0 32 32" id="Settings"><path fill="#4164df" fill-rule="evenodd" d="m18.9 2.67.44 3.56q.62.2 1.21.5l2.83-2.2 4.1 4.09-2.2 2.83q.28.59.5 1.21l3.55.45v5.78l-3.56.45q-.22.62-.5 1.2l2.2 2.84-4.09 4.1-2.84-2.22q-.58.3-1.2.5l-.45 3.57h-5.78l-.45-3.57a10 10 0 0 1-1.2-.5l-2.84 2.21-4.1-4.09 2.21-2.83q-.28-.59-.5-1.21l-3.56-.45v-5.78l3.56-.45q.2-.62.5-1.21l-2.2-2.83 4.09-4.1 2.83 2.2q.59-.28 1.21-.5l.45-3.55zM16 11a5 5 0 1 0 0 10 5 5 0 0 0 0-10" clip-rule="evenodd"/></svg>