<svg xmlns="http://www.w3.org/2000/svg" version="1.2" viewBox="0 0 32 32"><path fill-rule="evenodd" d="M27.9 7.5c.2 0 .4.1.4.4q-.1 1.2-.1 2.4-.1 1.2-.3 2.4-.1 1.2-.3 2.3-.2 1.2-.5 2.4-.5 1.7-1.2 3.3-.8 1.6-1.8 3.1-1.1 1.4-2.4 2.6-1.3 1.2-2.8 2.2l-2.6 1.7c-.2 0-.4.1-.5 0-1.9-1.2-3.8-2.4-5.4-3.9-3.1-2.7-4.9-6.2-5.8-10.2q-.2-.9-.3-1.8-.2-.8-.3-1.7-.1-.9-.1-1.8-.1-.9-.1-1.8V8c-.1-.3.1-.5.3-.6q1.6-.5 3.1-1.2t2.9-1.5Q11.6 3.9 13 3q1.4-.9 2.7-1.9c.2-.2.4-.1.6 0q1.3 1 2.7 1.9 1.4.9 2.9 1.7 1.4.8 2.9 1.5t3.1 1.2" style="fill:#4164df"/><path fill-rule="evenodd" d="M20.2 7v.1s-.1.1-.1.2-.1.2-.2.3c0 .1-.1.3-.2.4 0 .1-.1.2-.2.3l-.3.3-.3.3c-.1.1-.2.2-.3.2-.1.1-.3.2-.4.3-.1 0-.3.1-.4.1-.1.1-.2.1-.2.1v.2q.1 0 .1.1c.1 0 .2 0 .3.1h.2q0 .1.1.1s.1.1.2.1c.1.1.3.2.3.3.1 0 .3.1.4.2.1.1.2.3.2.3.1.1.2.3.3.4l.2.4c.1.1.2.3.2.4 0 .1.1.2.1.2h.2s0-.1.1-.2c0-.1.1-.3.1-.4.1-.1.2-.3.2-.4l.3-.3c0-.1.2-.2.3-.4l.3-.3c.1 0 .2-.1.3-.2.1 0 .2-.1.3-.1.1-.1.3-.1.4-.2q.2-.1.3-.1v-.2q-.1 0-.3-.1c-.1 0-.3-.1-.4-.2-.1 0-.2-.1-.3-.2-.1 0-.3-.1-.3-.2-.1 0-.2-.1-.3-.2-.1-.1-.3-.3-.3-.4-.1-.1-.2-.2-.2-.3l-.3-.3c0-.2-.1-.4-.1-.5l-.2-.2h-.1zm-5.5 3.4h-.4c-.2 0-.4 0-.6.1h-.5c-.1 0-.4.1-.5.1-.1 0-.4.1-.5.1-.2.1-.4.1-.5.2-.2 0-.4.1-.5.1-.1.1-.2.1-.2.1s0 .2-.1.4c0 .2-.1.8-.2 1.2-.1.5-.3 1.4-.4 2.1-.2.8-.3 1.4-.3 1.4v.1s.2.1.4.3c.3.1.5.2.6.3.1 0 .5.2.9.4.4.3.7.4.7.4h.1s.1-.6.2-1.4c.2-.7.4-1.9.5-2.6.2-.7.3-1.3.3-1.3h.1c0-.1.1-.1.2-.1s.3-.1.4-.1h.8c.1 0 .2 0 .3.1 0 0 .1 0 .2.1.1 0 .2.1.2.1q.1.1.2.3s.1.1.1.2v.6c0 .1-.1.5-.2.9 0 .4-.2 1-.2 1.4-.1.3-.3 1.1-.4 1.8-.1.7-.2 1.2-.2 1.3v.1s.1.1.2.1c.1.1.5.3.8.5.3.1.7.3.8.4.1.1.4.2.5.3.2.1.3.1.3.1s.1-.4.2-.9c.1-.4.2-1.3.3-1.8.1-.6.4-1.7.5-2.5.3-1.4.3-1.4.3-1.8v-1c-.1 0-.1-.2-.1-.3-.1-.1-.1-.2-.1-.2-.1-.1-.1-.2-.2-.3l-.3-.3-.3-.3c-.1-.1-.3-.2-.4-.3-.1 0-.3-.1-.4-.1-.1-.1-.3-.1-.4-.1-.1-.1-.3-.1-.5-.1-.1-.1-.3-.1-.4-.1H14.7z" style="fill:#fff"/></svg>