<svg xmlns="http://www.w3.org/2000/svg" width="32" height="32" viewBox="3.191 0.823 34.039 38.763"><path d="m20.911 0.957 0.225 0.119 0.248 0.131a37.895 37.895 0 0 1 1.116 0.638l0.759 0.445q0.685 0.397 1.372 0.787a232.421 232.421 0 0 1 2.295 1.325q1.248 0.728 2.499 1.447l1.286 0.743 0.513 0.296 1.027 0.593 0.766 0.442 1.187 0.684 0.417 0.238 0.519 0.298q0.594 0.34 1.176 0.696l0.207 0.126c0.333 0.25 0.538 0.533 0.66 0.93 0.023 0.25 0.022 0.499 0.022 0.75l0.002 0.23 0.002 0.764 0.002 0.548 0.003 1.489 0.002 1.243 0.002 3.098 0.004 2.69q0.004 1.382 0.004 2.762 0 0.774 0.003 1.551 0.003 0.728 0 1.459l0.002 0.536q0.002 0.366 -0.002 0.731l0.003 0.214c-0.006 0.524 -0.13 0.955 -0.494 1.345l-0.141 0.096 -0.167 0.115q-0.556 0.345 -1.126 0.664l-0.412 0.235 -0.424 0.243q-0.654 0.374 -1.306 0.751l-0.769 0.445 -7.185 4.144 -0.51 0.295 -2.116 1.22 -0.24 0.138 -0.232 0.134 -0.499 0.292 -0.256 0.152 -0.232 0.138c-0.445 0.248 -0.883 0.245 -1.38 0.188 -0.227 -0.089 -0.227 -0.089 -0.451 -0.207l-0.248 -0.13a39.579 39.579 0 0 1 -1.126 -0.644l-0.5 -0.293 -0.258 -0.152a194.526 194.526 0 0 0 -1.276 -0.739l-0.258 -0.149 -0.519 -0.299 -1.284 -0.744 -0.513 -0.296 -5.133 -2.961 -0.256 -0.148 -0.51 -0.295 -1.187 -0.684 -0.417 -0.238 -0.519 -0.298q-0.594 -0.34 -1.176 -0.696l-0.207 -0.126a1.718 1.718 0 0 1 -0.66 -0.93c-0.023 -0.25 -0.022 -0.499 -0.022 -0.75l-0.002 -0.23 -0.002 -0.764 -0.002 -0.548 -0.003 -1.489 -0.002 -1.243 -0.002 -2.764v-0.335l-0.004 -2.69q-0.004 -1.382 -0.004 -2.762 0 -0.774 -0.003 -1.551 -0.003 -0.728 0 -1.459l-0.002 -0.536q-0.002 -0.366 0.002 -0.731l-0.003 -0.214c0.006 -0.524 0.13 -0.955 0.494 -1.345l0.141 -0.096 0.167 -0.115q0.556 -0.345 1.126 -0.664l0.412 -0.235 0.424 -0.243q0.654 -0.374 1.306 -0.751l0.769 -0.445 7.185 -4.144 0.51 -0.295 2.116 -1.22 0.24 -0.138 0.232 -0.134 0.499 -0.292 0.256 -0.152 0.232 -0.138a1.895 1.895 0 0 1 1.608 -0.099" fill="#F1D0A4"/><path d="M9.474 7.027a7.579 7.579 0 0 1 0.45 0.243l0.267 0.152 0.285 0.167 0.298 0.172 0.613 0.355q0.541 0.314 1.084 0.625l0.76 0.438 1.027 0.593a432 432 0 0 1 2.472 1.434 212.211 212.211 0 0 0 2.06 1.19 236.632 236.632 0 0 1 2.295 1.325 529.684 529.684 0 0 0 4.968 2.858v0.316l-0.152 0.083c-0.771 0.429 -1.545 0.859 -2.309 1.302l-0.22 0.128a17.684 17.684 0 0 0 -0.462 0.28c-0.403 0.25 -0.765 0.44 -1.225 0.559 -0.569 0.178 -1.096 0.419 -1.395 0.963 -0.393 1.192 -0.238 2.622 -0.211 3.858 0.011 0.538 0.011 1.075 0.011 1.613q0 1.437 0.023 2.877a277.895 277.895 0 0 1 0.028 2.966l0.004 0.866q0.015 3.582 0.066 7.164l-0.34 -0.033 -0.19 -0.019c-0.256 -0.039 -0.445 -0.141 -0.667 -0.273l-0.265 -0.154 -0.28 -0.168 -0.296 -0.173 -0.599 -0.354q-0.502 -0.296 -1.005 -0.59l-0.458 -0.268q-0.909 -0.526 -1.821 -1.048a234.105 234.105 0 0 1 -2.295 -1.325q-1.246 -0.728 -2.499 -1.447l-1.541 -0.888 -1.578 -0.909 -0.774 -0.447a85.895 85.895 0 0 0 -0.885 -0.505l-0.361 -0.205 -0.161 -0.088c-0.47 -0.272 -0.8 -0.604 -0.959 -1.132 -0.023 -0.25 -0.022 -0.499 -0.022 -0.75l-0.002 -0.23 -0.002 -0.764 -0.002 -0.548 -0.003 -1.489 -0.002 -1.243 -0.002 -2.764v-0.335L3.2 18.713q-0.004 -1.382 -0.004 -2.762 0 -0.774 -0.003 -1.551 -0.003 -0.728 0 -1.459l-0.002 -0.536q-0.002 -0.366 0.002 -0.731l-0.003 -0.214c0.006 -0.524 0.13 -0.955 0.494 -1.345l0.141 -0.096 0.167 -0.115q0.556 -0.345 1.126 -0.664l0.407 -0.232 0.424 -0.241q0.696 -0.398 1.39 -0.8l0.253 -0.146 0.241 -0.139 0.231 -0.133a12.632 12.632 0 0 0 0.443 -0.273l0.208 -0.134 0.182 -0.121c0.232 -0.099 0.333 -0.076 0.572 0.003" fill="#E3A76F"/><path d="M14.369 4.185a17.684 17.684 0 0 1 0.611 0.331l0.188 0.104q0.884 0.5 1.758 1.017a181.053 181.053 0 0 0 1.864 1.074 234.105 234.105 0 0 1 2.295 1.325q1.248 0.728 2.499 1.447l1.286 0.741 0.513 0.296 1.027 0.593 0.256 0.148 0.512 0.296 1.587 0.915 0.507 0.292a22.737 22.737 0 0 1 0.46 0.272c0.195 0.109 0.367 0.195 0.572 0.277 0.383 0.167 0.783 0.344 0.949 0.75 0.106 0.498 0.077 1.005 0.06 1.512l-0.003 0.493a50.526 50.526 0 0 1 -0.018 1.029 64.842 64.842 0 0 0 -0.019 1.317 154.105 154.105 0 0 1 -0.015 1.261l-0.003 0.243 -0.015 0.679 -0.003 0.202c-0.014 0.419 -0.089 0.664 -0.367 0.995a6.737 6.737 0 0 1 -0.562 0.35l-0.359 0.203 -0.2 0.113q-0.509 0.288 -1.015 0.584 -0.515 0.299 -1.032 0.594a19.368 19.368 0 0 0 -0.434 0.258l-0.187 0.113 -0.159 0.099c-0.214 0.078 -0.34 0.046 -0.554 -0.02 -0.207 -0.207 -0.177 -0.356 -0.178 -0.638l0.002 -0.205v-0.215l0.003 -0.705 0.002 -0.488 0.004 -1.286 0.004 -1.311q0.003 -1.287 0.008 -2.574l-0.225 -0.073a3.2 3.2 0 0 1 -0.632 -0.298l-0.22 -0.13 -0.236 -0.141 -0.512 -0.301 -0.27 -0.159q-0.619 -0.361 -1.24 -0.713a236.632 236.632 0 0 1 -2.435 -1.405 434.526 434.526 0 0 0 -4.013 -2.313 229.053 229.053 0 0 1 -2.145 -1.24 322.526 322.526 0 0 0 -1.722 -1l-0.253 -0.147 -1.214 -0.697 -0.571 -0.326 -0.404 -0.23 -0.246 -0.141 -0.217 -0.124a1.937 1.937 0 0 1 -0.419 -0.354l0.173 -0.099a300.632 300.632 0 0 0 3.309 -1.906l0.424 -0.248q0.2 -0.116 0.399 -0.237l0.189 -0.113 0.166 -0.099c0.195 -0.077 0.278 -0.056 0.472 0.018" fill="#D0D0D5"/><path d="m20.911 0.957 0.225 0.119 0.248 0.131a37.895 37.895 0 0 1 1.116 0.638l0.759 0.445q0.685 0.397 1.372 0.787a232.421 232.421 0 0 1 2.295 1.325q1.248 0.728 2.499 1.447l1.286 0.743 0.513 0.296 1.027 0.593 0.766 0.442 1.187 0.684 0.417 0.238 0.519 0.298c1.568 0.902 1.568 0.902 1.806 1.2v0.237l-0.376 0.217 -0.248 0.144 -0.552 0.318 -1.67 0.964 -0.513 0.295c-0.411 0.233 -0.813 0.474 -1.208 0.733l-0.222 0.141a10.105 10.105 0 0 0 -0.403 0.27 1.389 1.389 0 0 1 -0.568 0.235c-0.351 -0.101 -0.639 -0.28 -0.947 -0.474l-0.435 -0.246 -0.443 -0.261 -0.5 -0.293 -0.258 -0.152a194.526 194.526 0 0 0 -1.276 -0.739l-0.258 -0.149 -0.519 -0.299q-0.643 -0.374 -1.286 -0.744l-0.513 -0.296 -5.133 -2.961 -0.769 -0.443 -1.288 -0.743a615.579 615.579 0 0 1 -3.428 -1.992 5.895 5.895 0 0 1 0.723 -0.477l0.246 -0.141 0.264 -0.152 0.275 -0.157 0.571 -0.328 1.384 -0.797 0.248 -0.143 0.24 -0.138 0.232 -0.134 0.499 -0.292 0.256 -0.152 0.232 -0.138a1.895 1.895 0 0 1 1.608 -0.099M9.474 7.027a7.579 7.579 0 0 1 0.45 0.243l0.267 0.152 0.285 0.167 0.298 0.172 0.613 0.355q0.541 0.314 1.084 0.625l0.76 0.438 1.027 0.593a432 432 0 0 1 2.472 1.434 212.211 212.211 0 0 0 2.06 1.19 236.632 236.632 0 0 1 2.295 1.325 529.684 529.684 0 0 0 4.968 2.858v0.316l-0.152 0.083a156.632 156.632 0 0 0 -2.786 1.579l-0.233 0.136a49.684 49.684 0 0 0 -1.185 0.712l-0.237 0.146 -0.445 0.278c-0.29 0.177 -0.497 0.296 -0.836 0.323 -0.438 -0.152 -0.821 -0.384 -1.218 -0.623l-0.273 -0.161 -0.566 -0.335q-0.65 -0.383 -1.307 -0.758l-0.513 -0.296 -0.256 -0.148 -6.927 -3.997 -0.256 -0.148 -0.513 -0.296 -1.288 -0.743a484.211 484.211 0 0 1 -2.846 -1.651l-0.225 -0.131 -0.198 -0.116a6.737 6.737 0 0 0 -0.318 -0.171c0.03 -0.188 0.057 -0.293 0.192 -0.431 0.467 -0.335 0.956 -0.623 1.457 -0.905l0.407 -0.232 0.424 -0.241q0.696 -0.398 1.39 -0.8l0.253 -0.146 0.241 -0.139 0.231 -0.133a12.632 12.632 0 0 0 0.443 -0.273l0.208 -0.134 0.182 -0.121c0.232 -0.099 0.333 -0.076 0.572 0.003" fill="#C48958"/><path d="M31.185 13.895q0.011 1.438 0.016 2.878 0.003 0.669 0.008 1.336 0.005 0.645 0.006 1.289l0.004 0.492q0.003 0.345 0.003 0.69l0.004 0.205c-0.003 0.424 -0.071 0.669 -0.355 1.003a6.737 6.737 0 0 1 -0.562 0.35l-0.359 0.203 -0.2 0.113q-0.509 0.288 -1.015 0.584 -0.515 0.299 -1.032 0.594a19.368 19.368 0 0 0 -0.434 0.258l-0.187 0.113 -0.159 0.099c-0.214 0.078 -0.34 0.046 -0.554 -0.02 -0.235 -0.235 -0.195 -0.502 -0.205 -0.818l-0.009 -0.207a87.579 87.579 0 0 1 -0.055 -1.898 42.947 42.947 0 0 0 -0.04 -1.274c-0.13 -2.733 -0.13 -2.733 0.328 -3.4 0.437 -0.396 0.932 -0.598 1.488 -0.773 0.307 -0.102 0.561 -0.251 0.831 -0.424l0.485 -0.28 0.493 -0.283 0.235 -0.136a131.368 131.368 0 0 0 1.007 -0.59c0.18 -0.102 0.18 -0.102 0.26 -0.102" fill="#ECEEEF"/><path d="M6.553 15.869c0.323 0.155 0.627 0.339 0.932 0.523l0.273 0.161 0.566 0.335q0.65 0.383 1.307 0.758l0.51 0.295 1.053 0.608 1.283 0.741 0.647 0.371 0.364 0.211 0.162 0.092c0.275 0.161 0.512 0.318 0.716 0.563 0.045 0.232 0.045 0.232 0 0.474 -0.163 0.227 -0.163 0.227 -0.396 0.396 -0.465 0.056 -0.749 -0.076 -1.129 -0.321l-0.357 -0.218 -0.197 -0.121c-0.393 -0.238 -0.793 -0.466 -1.192 -0.696l-0.533 -0.307 -0.27 -0.155 -0.784 -0.452 -0.763 -0.44a188.632 188.632 0 0 0 -1.203 -0.69l-0.568 -0.325 -0.402 -0.227 -0.245 -0.141 -0.216 -0.123c-0.241 -0.158 -0.471 -0.313 -0.552 -0.6 0 -0.303 0.011 -0.434 0.207 -0.675 0.295 -0.144 0.482 -0.129 0.784 -0.035m0 3.474c0.328 0.159 0.639 0.345 0.952 0.533l0.409 0.241 0.417 0.248 0.787 0.461 0.47 0.275 0.221 0.129 0.203 0.12 0.177 0.104c0.154 0.102 0.275 0.195 0.391 0.34 0.039 0.308 0.049 0.48 -0.129 0.74 -0.245 0.168 -0.36 0.203 -0.66 0.207 -0.29 -0.118 -0.552 -0.278 -0.819 -0.44l-0.238 -0.139 -0.5 -0.296a63.158 63.158 0 0 0 -0.781 -0.453l-0.508 -0.292 -0.24 -0.138c-1.036 -0.601 -1.036 -0.601 -1.157 -0.936 0.011 -0.287 0.042 -0.443 0.223 -0.669 0.295 -0.144 0.48 -0.13 0.784 -0.035" fill="#EBEDEE"/><path d="m4.027 9.869 0.158 0.08 -0.267 0.277 -0.15 0.155c-0.136 0.12 -0.136 0.12 -0.295 0.12 0.118 -0.299 0.296 -0.443 0.553 -0.632" fill="#CE9969"/></svg>