<svg viewBox="0 0 16 16" fill="none" xmlns="http://www.w3.org/2000/svg">
<path id="Glyph" fill-rule="evenodd" clip-rule="evenodd" d="M2 0H14C15.1046 0 16 0.89543 16 2V14C16 15.1046 15.1046 16 14 16H2C0.89543 16 0 15.1046 0 14V2C0 0.89543 0.89543 0 2 0ZM11.5707 4.5H12.25C12.6642 4.5 13 4.16421 13 3.75C13 3.33579 12.6642 3 12.25 3H8.75C8.33579 3 8 3.33579 8 3.75V6.25C8 6.66421 8.33579 7 8.75 7C9.16421 7 9.5 6.66421 9.5 6.25V4.83682C10.6825 5.39855 11.5 6.6038 11.5 8C11.5 9.18937 10.9067 10.2402 10 10.8727V12.584C11.7659 11.8124 13 10.0503 13 8C13 6.63727 12.4548 5.40188 11.5707 4.5ZM4.42928 11.584H3.75C3.33579 11.584 3 11.9197 3 12.334C3 12.7482 3.33579 13.084 3.75 13.084H7.25C7.66421 13.084 8 12.7482 8 12.334V9.83396C8 9.41974 7.66421 9.08396 7.25 9.08396C6.83579 9.08396 6.5 9.41974 6.5 9.83396V11.2471C5.31753 10.6854 4.5 9.48015 4.5 8.08396C4.5 6.89458 5.09326 5.84377 6 5.2113V3.5C4.2341 4.27156 3 6.03364 3 8.08396C3 9.44668 3.54516 10.6821 4.42928 11.584Z" fill="#30313D"/>
</svg>
